<svg version="1.1" id="Layer_1" xmlns="http://www.w3.org/2000/svg" xmlns:xlink="http://www.w3.org/1999/xlink" x="0px" y="0px"
	 width="100%" viewBox="0 0 1577 1785" enable-background="new 0 0 1577 1785" xml:space="preserve">
<path fill="#FFFFFF" opacity="1.000000" stroke="none" 
	d="
M1578.000000,638.000000 
	C1578.000000,1020.999878 1578.000000,1403.499756 1578.000000,1785.999756 
	C1052.333618,1785.999756 526.667236,1785.999756 1.000609,1785.999878 
	C1.000406,1191.000488 1.000406,596.000916 1.000203,1.001008 
	C526.666077,1.000672 1052.332153,1.000672 1577.999023,1.000336 
	C1578.000000,213.166672 1578.000000,425.333344 1578.000000,638.000000 
M1373.900269,977.794373 
	C1396.524292,930.488831 1411.900879,880.907837 1420.865356,828.513733 
	C1422.903809,812.501709 1425.436523,796.533813 1426.872681,780.467957 
	C1429.445435,751.685974 1428.826416,722.854309 1425.833130,694.131592 
	C1424.432617,680.691711 1421.936646,667.365906 1420.305664,653.497681 
	C1419.244751,648.059265 1418.298706,642.595459 1417.102051,637.187073 
	C1413.209106,619.592529 1409.224243,602.018250 1405.256836,583.674866 
	C1397.467407,559.140991 1390.324097,534.379089 1381.762695,510.117676 
	C1359.729248,447.680023 1328.916138,390.059937 1286.781860,338.620056 
	C1251.634521,295.710205 1212.947510,256.374878 1171.234253,219.880310 
	C1083.951416,143.517563 984.505798,90.217949 872.009277,61.654057 
	C859.012573,58.354073 845.656616,56.468941 831.915710,53.515121 
	C775.143066,37.131809 717.158386,28.620867 658.136780,27.354471 
	C605.807251,26.231665 554.040283,31.331284 502.998901,43.083294 
	C410.923920,64.283081 328.019012,103.928970 256.340820,166.065918 
	C189.890030,223.671280 138.317886,292.808350 97.991821,370.621887 
	C80.601120,404.179199 64.499077,438.436249 54.564465,474.959564 
	C38.485928,534.070190 26.103809,594.013916 18.794535,654.912720 
	C14.738403,688.707397 12.028924,722.555237 16.030642,756.564514 
	C17.331829,767.622925 19.176476,778.584595 24.479609,789.099915 
	C24.974804,787.896118 25.347855,787.171936 25.577436,786.404846 
	C36.665676,749.355347 54.607304,715.718262 76.899521,684.337708 
	C122.320679,620.398682 181.770004,573.380615 252.247635,539.807190 
	C356.410858,490.186981 465.543793,465.676300 581.311157,474.908539 
	C625.329529,478.418915 668.147156,487.605225 709.753418,502.427185 
	C737.722656,512.391052 764.302734,525.307129 790.376099,540.617249 
	C801.648071,548.794800 813.479065,556.314148 824.061768,565.303223 
	C840.158264,578.975891 851.958252,595.850830 857.447327,616.668945 
	C860.589722,628.587036 860.514771,640.593445 858.719910,653.265320 
	C844.493530,665.542603 830.267212,677.819885 815.395630,690.278564 
	C802.704712,700.802185 790.183044,711.538330 777.289917,721.808105 
	C743.536316,748.693909 707.633118,772.547791 671.498840,796.049866 
	C649.757874,810.190308 627.858337,824.086975 605.347229,838.194519 
	C562.197205,864.780457 519.008545,891.304016 475.920898,917.990723 
	C463.076904,925.945862 450.560974,934.428833 437.805450,942.529419 
	C431.991302,946.221680 425.960144,949.572266 419.343994,953.181946 
	C385.280884,975.431152 350.953918,997.289917 317.248138,1020.067871 
	C295.047272,1035.070923 273.741119,1051.397949 251.387848,1067.306396 
	C206.450623,1101.323242 163.657578,1137.812012 123.960991,1177.868042 
	C109.950417,1192.005371 97.849289,1207.609009 87.319778,1225.190430 
	C79.847115,1241.102539 71.303497,1256.609131 65.098503,1273.001099 
	C44.835888,1326.529785 39.609070,1381.832886 47.864807,1438.449463 
	C54.047421,1480.848877 67.360603,1520.904297 88.370094,1558.195312 
	C110.595261,1597.644165 142.015274,1628.879517 178.697083,1654.840332 
	C193.570145,1665.366455 209.540771,1674.341675 225.004013,1683.986572 
	C225.004013,1683.986572 224.967865,1683.994019 225.258575,1684.572144 
	C225.858673,1684.805908 226.458786,1685.039795 227.505875,1685.751465 
	C231.202744,1687.973511 234.956207,1690.107056 238.587875,1692.430908 
	C290.349609,1725.554443 347.989075,1741.153687 408.160217,1748.860352 
	C425.619873,1751.096436 443.239807,1752.498291 460.829285,1753.192261 
	C480.453613,1753.966675 500.128845,1753.687866 519.778076,1753.486572 
	C528.662659,1753.395630 537.537842,1752.384277 547.431885,1751.722656 
	C545.916870,1750.482422 545.211609,1749.906128 544.507385,1749.328491 
	C533.207886,1740.060791 521.043518,1731.658203 510.758118,1721.376099 
	C465.484406,1676.117188 440.039215,1620.278076 426.001099,1558.645630 
	C420.500641,1534.496704 417.280579,1510.020874 415.690674,1485.290161 
	C414.256012,1462.974243 413.683167,1440.684204 417.174164,1418.544922 
	C424.217712,1373.875488 442.969269,1334.374634 472.438293,1300.339233 
	C486.004913,1284.670410 501.668549,1270.817139 516.768127,1256.086304 
	C516.768127,1256.086304 516.978210,1255.757080 517.535156,1255.645264 
	C518.032043,1255.099976 518.528992,1254.554688 519.664246,1253.800537 
	C524.405334,1249.982178 529.146484,1246.163940 534.472168,1242.130981 
	C567.254272,1218.552612 602.227539,1198.875122 640.143982,1183.094482 
	C681.427612,1168.347778 722.711243,1153.601074 764.747620,1138.876587 
	C765.529236,1138.605469 766.301636,1138.302979 767.093872,1138.067505 
	C799.421692,1128.457764 831.751221,1118.854004 864.902771,1109.251831 
	C872.216309,1107.678101 879.505554,1105.979370 886.847656,1104.552246 
	C917.960815,1098.504272 948.698547,1096.490967 978.871216,1109.905151 
	C991.642212,1115.582886 1003.671509,1121.571045 1011.942871,1133.276367 
	C1027.485718,1155.272095 1030.003540,1179.834839 1026.637207,1205.730347 
	C1025.269531,1216.251709 1024.272339,1226.893188 1024.194458,1237.488037 
	C1024.130249,1246.219482 1027.218872,1254.516479 1034.809814,1259.622192 
	C1046.366943,1267.395630 1059.401245,1271.147949 1073.214722,1268.268066 
	C1097.986206,1263.104004 1119.074463,1249.381592 1141.617188,1237.464233 
	C1155.268188,1228.286499 1169.129272,1219.402466 1182.509033,1209.845093 
	C1194.947144,1200.960327 1206.872314,1191.357422 1219.670166,1181.870605 
	C1232.253662,1170.026001 1245.567139,1158.853516 1257.242798,1146.173218 
	C1273.196899,1128.846436 1287.904541,1110.372192 1303.749634,1092.038086 
	C1313.860352,1077.807251 1324.509033,1063.921875 1333.933350,1049.250122 
	C1343.723267,1034.009399 1352.510742,1018.109802 1361.376099,1002.296143 
	C1365.765747,994.466187 1369.344971,986.182007 1373.900269,977.794373 
M1321.846313,1467.604126 
	C1319.904663,1453.283447 1319.164185,1438.673706 1315.801636,1424.694824 
	C1304.652222,1378.344238 1272.197876,1351.498291 1224.608154,1350.120361 
	C1186.154053,1349.006958 1147.645020,1349.785034 1109.160400,1349.744507 
	C1108.894653,1349.744263 1108.628662,1350.028076 1108.313843,1350.207031 
	C1108.313843,1438.382324 1108.313843,1526.583130 1108.313843,1615.001099 
	C1109.443481,1615.001099 1110.257935,1615.001221 1111.072388,1615.001221 
	C1145.895264,1615.000854 1180.718506,1615.067993 1215.540894,1614.933594 
	C1221.345215,1614.911255 1227.197998,1614.348633 1232.940430,1613.464600 
	C1272.488281,1607.377197 1297.846802,1584.357178 1311.196533,1547.281982 
	C1320.362427,1521.825806 1322.207031,1495.341675 1321.846313,1467.604126 
M620.097656,1499.500000 
	C620.097656,1537.921143 620.097656,1576.342407 620.097656,1615.001465 
	C646.122559,1615.001465 671.442139,1615.100220 696.760498,1614.963257 
	C711.079285,1614.885742 725.473572,1615.267700 739.698608,1613.965332 
	C776.563843,1610.590088 803.137573,1591.858154 818.930969,1558.243530 
	C826.728088,1541.647949 830.699951,1523.987793 832.508423,1505.840820 
	C835.249634,1478.334229 835.090637,1450.932739 828.016541,1423.970215 
	C815.856628,1377.623169 783.834167,1351.302612 736.003662,1350.043457 
	C698.364197,1349.052734 660.681091,1349.722412 623.017334,1349.669556 
	C622.218262,1349.668457 621.419006,1349.852905 620.097656,1350.014648 
	C620.097656,1399.599731 620.097656,1449.049927 620.097656,1499.500000 
M913.481262,1545.820190 
	C912.674561,1541.608887 911.867920,1537.397705 911.073242,1533.249023 
	C894.300781,1533.249023 877.719177,1533.249023 860.707947,1533.249023 
	C861.175354,1537.738770 861.434387,1541.882080 862.059631,1545.969360 
	C867.037659,1578.513672 883.740479,1602.502197 915.061218,1613.975830 
	C949.643555,1626.644531 984.786316,1625.847778 1019.077942,1612.563965 
	C1039.883057,1604.504395 1055.630249,1590.186523 1063.471558,1568.586426 
	C1069.198486,1552.810669 1068.950439,1536.618042 1066.253296,1520.282104 
	C1062.883301,1499.869873 1052.067139,1485.099854 1033.351196,1476.228394 
	C1028.547974,1473.951660 1023.767395,1471.438843 1018.710571,1469.919312 
	C1000.419373,1464.422852 981.975159,1459.437256 963.667664,1453.993286 
	C951.895935,1450.493042 940.020874,1447.134277 928.635864,1442.598267 
	C917.540894,1438.177734 914.025452,1431.121582 914.826538,1419.279175 
	C915.738403,1405.798584 923.768982,1395.586670 937.244385,1391.022095 
	C948.238098,1387.298218 959.499084,1387.358521 970.825073,1389.070557 
	C990.599792,1392.059570 1005.177002,1404.457520 1009.437927,1421.920044 
	C1009.982727,1424.152710 1010.307739,1426.438843 1010.750183,1428.782715 
	C1027.881958,1428.782715 1044.779907,1428.782715 1061.845947,1428.782715 
	C1061.524780,1425.954224 1061.331543,1423.464478 1060.949341,1421.004150 
	C1055.542847,1386.195312 1036.996826,1361.629517 1003.860229,1348.933472 
	C982.612000,1340.792358 960.525574,1340.499146 938.366150,1344.124390 
	C899.046692,1350.556885 868.669128,1376.163940 865.591309,1417.181152 
	C862.523560,1458.062256 876.707336,1477.286133 906.251099,1488.924683 
	C921.984375,1495.122803 938.299438,1499.888306 954.471924,1504.914185 
	C970.007324,1509.742065 985.827576,1513.676392 1001.274780,1518.757080 
	C1011.836548,1522.230835 1016.984436,1530.641235 1017.758972,1541.592041 
	C1018.529480,1552.485718 1014.428833,1561.216919 1005.075562,1566.970947 
	C1001.015564,1569.468628 996.552307,1571.558716 992.003906,1572.967163 
	C978.903625,1577.023804 965.353882,1577.478638 951.916870,1575.641113 
	C933.947021,1573.184082 919.760315,1565.082886 913.481262,1545.820190 
M1378.500977,1349.597412 
	C1372.403687,1349.597412 1366.306519,1349.597412 1360.000000,1349.597412 
	C1360.000000,1351.241821 1359.999878,1352.232178 1360.000000,1353.222656 
	C1360.002930,1407.544434 1359.759155,1461.868164 1360.193481,1516.186523 
	C1360.293945,1528.752441 1361.682007,1541.516113 1364.262939,1553.814087 
	C1371.220459,1586.966431 1390.688477,1609.294678 1424.156250,1617.624634 
	C1450.972412,1624.298950 1478.007324,1623.856323 1504.727417,1616.829468 
	C1532.779175,1609.452515 1550.180908,1591.101929 1557.897095,1563.318604 
	C1562.436035,1546.975342 1563.787476,1530.244995 1563.802246,1513.378784 
	C1563.848511,1460.556641 1563.819580,1407.734497 1563.819702,1354.912354 
	C1563.819702,1353.299683 1563.819702,1351.687134 1563.819702,1349.838867 
	C1546.046997,1349.838867 1528.780151,1349.838867 1511.063843,1349.838867 
	C1511.063843,1351.839355 1511.063843,1353.627319 1511.063843,1355.415161 
	C1511.063599,1408.237305 1511.099854,1461.059448 1511.017334,1513.881470 
	C1511.006958,1520.528809 1510.646118,1527.203125 1509.974731,1533.816772 
	C1507.820679,1555.030273 1497.736572,1567.840332 1479.664795,1571.709473 
	C1473.210205,1573.091309 1466.437744,1573.739136 1459.840210,1573.568848 
	C1434.004150,1572.902222 1418.989868,1560.558594 1414.373535,1536.061768 
	C1412.996582,1528.755371 1412.712524,1521.159424 1412.693115,1513.694092 
	C1412.556763,1461.038940 1412.620239,1408.383423 1412.619995,1355.727905 
	C1412.619995,1353.805786 1412.619995,1351.883667 1412.619995,1349.597534 
	C1401.109741,1349.597534 1390.305176,1349.597534 1378.500977,1349.597412 
M637.167297,1699.661255 
	C637.167297,1697.434692 637.167297,1695.208252 637.167297,1692.981689 
	C637.462402,1692.932495 637.757507,1692.883301 638.052612,1692.834106 
	C643.109680,1713.862549 648.166687,1734.891113 653.213928,1755.878906 
	C658.658081,1755.878906 663.635498,1755.878906 668.980164,1755.878906 
	C674.060669,1734.781738 679.133972,1713.714600 684.207275,1692.647339 
	C684.512878,1692.681763 684.818481,1692.716187 685.124084,1692.750610 
	C685.124084,1713.751953 685.124084,1734.753296 685.124084,1755.737793 
	C690.368225,1755.737793 695.122253,1755.737793 699.813354,1755.737793 
	C699.813354,1727.426758 699.813354,1699.382935 699.813354,1671.371216 
	C691.518005,1671.371216 683.589111,1671.371216 675.531677,1671.371216 
	C670.875916,1690.028198 666.278687,1708.450439 661.681458,1726.872559 
	C661.355408,1726.898560 661.029358,1726.924561 660.703247,1726.950562 
	C656.010071,1708.387817 651.316833,1689.824951 646.639099,1671.323242 
	C638.275391,1671.323242 630.344482,1671.323242 622.273682,1671.323242 
	C622.273682,1699.615479 622.273682,1727.669800 622.273682,1755.751465 
	C627.306030,1755.751465 632.057495,1755.751465 637.167542,1755.751465 
	C637.167542,1737.206909 637.167542,1718.912109 637.167297,1699.661255 
M967.499878,1756.003662 
	C974.816711,1755.763428 982.193420,1756.029541 989.437195,1755.172119 
	C1002.477905,1753.628418 1011.015320,1741.862183 1009.446411,1728.793579 
	C1008.362610,1719.765869 1003.094482,1714.179932 994.882446,1710.770020 
	C1004.035645,1704.054932 1007.165039,1696.608521 1004.980286,1687.336914 
	C1003.155945,1679.594727 996.371704,1672.478882 988.352356,1672.164795 
	C972.943481,1671.561401 957.494202,1671.989136 941.804688,1671.989136 
	C941.804688,1699.575073 941.804688,1727.651733 941.804688,1756.003784 
	C950.202332,1756.003784 958.351135,1756.003784 967.499878,1756.003662 
M1485.014893,1732.350952 
	C1488.670166,1742.997803 1495.394043,1750.900757 1506.078491,1754.822388 
	C1515.886719,1758.422363 1526.005981,1758.768433 1535.887085,1755.269775 
	C1539.245361,1754.080933 1541.285400,1754.797974 1543.901855,1756.647339 
	C1548.164917,1759.660400 1552.756836,1762.208130 1557.686646,1765.245972 
	C1560.044800,1760.453247 1561.968628,1756.543457 1563.790405,1752.840820 
	C1559.332520,1750.286499 1555.259033,1747.952637 1550.963989,1745.491699 
	C1561.231567,1731.916138 1562.390869,1717.140747 1559.984375,1701.728638 
	C1557.016724,1682.722778 1543.539917,1670.719116 1524.288940,1669.745605 
	C1504.017944,1668.720581 1488.853149,1679.126343 1484.195923,1697.590454 
	C1481.338623,1708.919067 1481.416748,1720.304932 1485.014893,1732.350952 
M1144.046997,1685.019043 
	C1142.877930,1693.522095 1147.183105,1700.047852 1151.779175,1706.332153 
	C1148.210815,1709.115356 1144.387207,1711.541016 1141.249390,1714.656982 
	C1133.856812,1721.998535 1131.739990,1731.022339 1135.078735,1740.811768 
	C1138.397705,1750.544067 1145.873657,1755.602661 1155.913818,1757.053223 
	C1167.130493,1758.673706 1177.375000,1756.627075 1185.662354,1748.938232 
	C1190.321167,1752.269653 1194.594971,1755.325806 1199.056274,1758.515991 
	C1202.421997,1754.027832 1205.385742,1750.075562 1208.423584,1746.024536 
	C1204.104248,1742.685059 1200.079102,1739.573120 1196.417114,1736.741943 
	C1198.753174,1730.468872 1200.901978,1724.698975 1203.181396,1718.578003 
	C1197.766602,1717.386230 1193.336182,1716.411011 1189.022461,1715.461426 
	C1187.742798,1718.808716 1186.722534,1721.477051 1185.399780,1724.936768 
	C1181.355103,1719.253296 1177.863770,1714.347412 1174.396606,1709.475220 
	C1177.578613,1706.797852 1180.553955,1704.636475 1183.116455,1702.063965 
	C1187.725342,1697.436890 1189.875732,1691.840088 1188.469116,1685.246460 
	C1186.514893,1676.085449 1179.347168,1670.438232 1168.992310,1669.796875 
	C1155.556152,1668.964722 1147.984863,1673.354370 1144.046997,1685.019043 
M1344.506348,1671.078735 
	C1339.764038,1671.078735 1335.021606,1671.078735 1330.368042,1671.078735 
	C1330.368042,1699.785889 1330.368042,1727.678223 1330.368042,1755.630127 
	C1343.367920,1755.630127 1356.168335,1756.252808 1368.880005,1755.457397 
	C1381.956177,1754.639038 1390.537231,1746.812622 1394.854858,1734.625122 
	C1399.556641,1721.352783 1399.446411,1707.779541 1395.433594,1694.425659 
	C1390.913696,1679.384644 1381.291626,1672.137451 1365.463501,1671.264404 
	C1358.827271,1670.898193 1352.158447,1671.122803 1344.506348,1671.078735 
M1309.142822,1746.580444 
	C1319.639893,1730.098633 1313.873047,1712.948730 1295.583618,1706.390259 
	C1292.930542,1705.438843 1290.165649,1704.803589 1287.472778,1703.957397 
	C1282.247925,1702.315186 1276.780273,1701.143433 1271.933838,1698.730835 
	C1269.650391,1697.593994 1267.298218,1694.021851 1267.328247,1691.582275 
	C1267.354858,1689.427490 1270.230469,1686.389282 1272.566406,1685.339478 
	C1283.099854,1680.605103 1291.816895,1684.757446 1295.489746,1695.576172 
	C1300.821533,1695.576172 1306.094971,1695.576172 1311.345337,1695.576172 
	C1311.509644,1684.631226 1305.903809,1675.673462 1296.285034,1672.199707 
	C1286.447998,1668.647095 1276.325195,1668.474121 1266.421021,1671.987671 
	C1254.711426,1676.141846 1248.805908,1687.688354 1252.048462,1699.683472 
	C1254.271851,1707.908325 1259.980835,1713.096191 1267.747437,1715.836792 
	C1274.941162,1718.375366 1282.371338,1720.236572 1289.659912,1722.515747 
	C1294.049194,1723.888184 1297.564819,1726.265381 1297.680664,1731.474854 
	C1297.781860,1736.031006 1294.243774,1740.520508 1289.153564,1742.002441 
	C1279.986816,1744.671509 1267.693970,1743.335693 1264.723022,1729.425293 
	C1264.555054,1728.638794 1264.131592,1727.906982 1263.721313,1726.887085 
	C1258.590454,1727.431152 1253.521484,1727.968628 1248.471313,1728.504150 
	C1249.436890,1742.276855 1255.998901,1752.322632 1267.535889,1755.359253 
	C1282.331665,1759.253418 1296.966309,1759.735596 1309.142822,1746.580444 
M778.550964,1720.886475 
	C773.725830,1708.341553 768.888062,1695.801636 764.079224,1683.250488 
	C759.381104,1670.988159 759.393127,1671.099365 746.213989,1670.997070 
	C743.008789,1670.972168 741.700500,1671.999146 740.614136,1674.998901 
	C733.550476,1694.503174 726.239380,1713.917725 719.008301,1733.361328 
	C716.254211,1740.766602 713.497559,1748.171021 710.627319,1755.884277 
	C716.744690,1755.884277 722.222107,1755.884277 727.948364,1755.884277 
	C729.820251,1750.583252 731.520325,1745.196655 733.690125,1740.006226 
	C734.269104,1738.621460 736.257446,1736.963989 737.645996,1736.919800 
	C746.462219,1736.639526 755.295837,1736.643066 764.112915,1736.910156 
	C765.547119,1736.953613 767.598877,1738.470459 768.209351,1739.826538 
	C770.178589,1744.201294 771.463928,1748.880615 773.343018,1753.302124 
	C773.837036,1754.464478 775.483948,1755.815674 776.671692,1755.885498 
	C781.595093,1756.175171 786.545410,1756.007202 791.940796,1756.007202 
	C787.453430,1744.204346 783.156494,1732.902344 778.550964,1720.886475 
M1086.704834,1756.008057 
	C1090.474976,1756.008057 1094.244995,1756.008057 1098.573608,1756.008057 
	C1097.776733,1753.752197 1097.217285,1752.048950 1096.577881,1750.376221 
	C1087.988770,1727.909180 1079.382690,1705.448730 1070.794067,1682.981689 
	C1066.215210,1671.004028 1066.223755,1671.173706 1053.180298,1670.966064 
	C1049.619263,1670.909424 1048.293945,1672.250854 1047.193604,1675.274902 
	C1040.443726,1693.824707 1033.542725,1712.319580 1026.684326,1730.829834 
	C1023.643616,1739.036987 1020.585754,1747.237915 1017.406006,1755.790527 
	C1023.588623,1755.790527 1029.160278,1755.790527 1034.779297,1755.790527 
	C1036.632446,1750.436646 1038.505737,1745.288574 1040.177612,1740.075806 
	C1040.927979,1737.736572 1041.992798,1736.643555 1044.700562,1736.704712 
	C1053.351807,1736.899902 1062.011841,1736.869995 1070.664917,1736.721436 
	C1073.277466,1736.676758 1074.446655,1737.542725 1075.250366,1740.053467 
	C1076.964600,1745.409180 1079.090454,1750.633301 1081.083496,1756.008057 
	C1082.794800,1756.008057 1084.284912,1756.008057 1086.704834,1756.008057 
M885.768677,1671.080566 
	C882.551392,1670.752930 880.454651,1671.336060 879.101990,1675.081055 
	C869.916077,1700.512451 860.397095,1725.823608 851.009155,1751.182251 
	C850.468384,1752.643066 850.134094,1754.180176 849.657166,1755.843994 
	C855.622620,1755.843994 861.092163,1755.843994 866.607666,1755.843994 
	C868.916687,1749.383057 871.179382,1743.051636 873.421692,1736.777344 
	C883.426086,1736.777344 892.912842,1736.899780 902.393127,1736.703857 
	C905.289917,1736.643921 906.460327,1737.702881 907.267212,1740.334473 
	C908.627014,1744.769409 910.244629,1749.145264 912.097717,1753.395996 
	C912.598206,1754.544067 914.297424,1755.817505 915.515076,1755.890625 
	C920.294434,1756.177490 925.101135,1756.007935 930.338501,1756.007935 
	C929.723450,1754.029541 929.327515,1752.445557 928.746338,1750.932739 
	C919.882507,1727.859009 910.990662,1704.796021 902.113892,1681.727295 
	C898.018250,1671.083740 898.026489,1671.080566 885.768677,1671.080566 
M1410.190063,1685.470825 
	C1417.457397,1685.470825 1424.724854,1685.470825 1432.506348,1685.470825 
	C1432.506348,1709.284790 1432.506348,1732.497437 1432.506348,1755.706055 
	C1438.270996,1755.706055 1443.506226,1755.706055 1449.134277,1755.706055 
	C1449.134277,1732.179688 1449.134277,1708.948486 1449.134277,1685.244263 
	C1457.268311,1685.244263 1465.008057,1685.244263 1472.677734,1685.244263 
	C1472.677734,1680.333984 1472.677734,1675.905762 1472.677734,1671.394165 
	C1451.220825,1671.394165 1430.035522,1671.394165 1408.066284,1671.394165 
	C1408.508301,1676.266113 1408.917847,1680.779663 1410.190063,1685.470825 
M829.106873,1703.500977 
	C829.106873,1697.592651 829.106873,1691.684204 829.106873,1685.407227 
	C837.460693,1685.407227 845.070923,1685.407227 852.724365,1685.407227 
	C852.724365,1680.457764 852.724365,1675.905884 852.724365,1671.336182 
	C831.325806,1671.336182 810.266174,1671.336182 789.134277,1671.336182 
	C789.134277,1676.118164 789.134277,1680.646362 789.134277,1685.581055 
	C797.092346,1685.581055 804.696655,1685.581055 812.779541,1685.581055 
	C812.779541,1709.190308 812.779541,1732.393433 812.779541,1755.687500 
	C818.489990,1755.687500 823.703369,1755.687500 829.106873,1755.687500 
	C829.106873,1738.416016 829.106873,1721.458252 829.106873,1703.500977 
z"/>
<path fill="#EC6E00" opacity="1.000000" stroke="none" 
	d="
M790.030518,540.047852 
	C764.302734,525.307129 737.722656,512.391052 709.753418,502.427185 
	C668.147156,487.605225 625.329529,478.418915 581.311157,474.908539 
	C465.543793,465.676300 356.410858,490.186981 252.247635,539.807190 
	C181.770004,573.380615 122.320679,620.398682 76.899521,684.337708 
	C54.607304,715.718262 36.665676,749.355347 25.577436,786.404846 
	C25.347855,787.171936 24.974804,787.896118 24.479609,789.099915 
	C19.176476,778.584595 17.331829,767.622925 16.030642,756.564514 
	C12.028924,722.555237 14.738403,688.707397 18.794535,654.912720 
	C26.103809,594.013916 38.485928,534.070190 54.564465,474.959564 
	C64.499077,438.436249 80.601120,404.179199 97.991821,370.621887 
	C138.317886,292.808350 189.890030,223.671280 256.340820,166.065918 
	C328.019012,103.928970 410.923920,64.283081 502.998901,43.083294 
	C554.040283,31.331284 605.807251,26.231665 658.136780,27.354471 
	C717.158386,28.620867 775.143066,37.131809 832.405396,54.021004 
	C834.074158,55.437595 835.253357,56.348194 836.432373,57.259048 
	C851.494568,68.895058 866.556702,80.531097 881.764771,92.433411 
	C882.263916,92.831261 882.617126,92.962860 882.960327,93.057365 
	C882.950256,93.020271 882.882874,93.057312 882.898376,93.367027 
	C883.262695,93.811653 883.611450,93.946571 883.930237,94.060135 
	C883.900208,94.038780 883.845276,94.087929 883.835449,94.441544 
	C897.228394,112.107498 909.056458,130.346710 916.928223,151.259827 
	C917.346924,152.045532 917.713562,152.516663 918.045410,152.991211 
	C918.010681,152.994659 918.044922,152.933762 918.011658,153.341415 
	C918.487549,155.829422 918.839050,157.963745 919.530151,159.981781 
	C926.520203,180.393692 932.552185,201.105377 933.825989,222.721741 
	C935.175354,245.620773 933.807129,268.495636 928.091797,290.814301 
	C923.864258,307.323059 918.720032,323.597107 913.716064,340.206421 
	C908.120911,352.960144 903.702087,365.971863 897.280457,377.905914 
	C883.360535,403.774841 869.380981,429.707275 853.611023,454.457428 
	C838.754639,477.773499 821.687012,499.691711 805.335510,522.037048 
	C800.695251,528.378235 795.156982,534.062378 790.030518,540.047852 
z"/>
<path fill="#02552C" opacity="1.000000" stroke="none" 
	d="
M516.978210,1255.757080 
	C516.978210,1255.757080 516.768127,1256.086304 516.179077,1256.076294 
	C510.305267,1258.755981 504.844788,1261.151367 499.763336,1264.181885 
	C458.690979,1288.678955 418.505707,1314.492676 381.029755,1344.333984 
	C355.961914,1364.295166 331.376160,1384.789185 309.895416,1408.680542 
	C299.147095,1420.634888 288.393463,1432.634766 278.446869,1445.248535 
	C262.652222,1465.278564 249.372711,1486.931152 239.952423,1510.757080 
	C227.341919,1542.651733 221.503662,1576.096191 219.243896,1610.050293 
	C217.635040,1634.224243 218.788635,1658.497803 224.599335,1682.127930 
	C207.502609,1669.799561 192.555222,1655.629761 180.077240,1639.060181 
	C157.805817,1609.485718 140.694717,1577.042114 127.788025,1542.385620 
	C112.582031,1501.554932 106.455269,1459.415649 111.201942,1416.028564 
	C114.388649,1386.900513 122.592697,1358.992432 135.785767,1332.816284 
	C143.161896,1318.181641 151.955032,1304.261108 160.396454,1289.855225 
	C172.633957,1274.823364 183.488892,1258.874146 196.815704,1245.363281 
	C213.089523,1228.864868 230.655563,1213.388184 249.076050,1199.320190 
	C275.712006,1178.977783 303.616913,1160.296997 331.297119,1140.793579 
	C335.634918,1138.070435 339.620911,1135.405151 343.683319,1132.861938 
	C358.100494,1123.836060 372.543732,1114.851929 387.112671,1106.171265 
	C389.898193,1109.220947 392.425140,1112.084839 395.219452,1114.658325 
	C406.428040,1124.981323 417.737366,1135.194702 428.975494,1145.485718 
	C441.335541,1156.803955 453.724976,1168.091431 465.980988,1179.521606 
	C482.847443,1195.251343 499.559875,1211.146240 516.425110,1226.877319 
	C522.109619,1232.179565 528.059143,1237.197632 533.887573,1242.345581 
	C529.146484,1246.163940 524.405334,1249.982178 519.038696,1253.926758 
	C517.934753,1254.620972 517.456482,1255.189087 516.978210,1255.757080 
z"/>
<path fill="#158009" opacity="1.000000" stroke="none" 
	d="
M916.876221,150.945236 
	C909.056458,130.346710 897.228394,112.107498 884.194824,94.420937 
	C887.765991,96.388733 891.091248,98.580917 894.150085,101.097061 
	C914.151306,117.549683 934.912231,133.195694 953.822876,150.823792 
	C972.019409,167.786240 989.226624,186.037582 1005.134338,205.164856 
	C1021.555847,224.910049 1036.479492,245.990738 1050.937256,267.249695 
	C1061.556763,282.864716 1070.368164,299.709320 1080.025024,316.365326 
	C1084.789307,326.637329 1089.780762,336.432953 1094.191895,346.483185 
	C1111.476318,385.864014 1125.526855,426.159454 1130.240479,469.307281 
	C1132.935181,493.972961 1132.697510,518.478516 1127.060547,542.548035 
	C1123.140381,559.287170 1117.058228,575.519897 1111.672119,592.188110 
	C1104.036987,605.609253 1097.487549,619.363953 1089.132812,631.917236 
	C1072.878418,656.339966 1053.778564,678.522156 1031.629639,697.863831 
	C1012.264526,714.774597 992.545715,731.280151 972.682617,748.116455 
	C963.327576,755.266663 954.355652,762.375671 945.192017,769.228333 
	C937.916382,774.669006 930.406128,779.795837 922.965576,784.704834 
	C917.622314,779.733032 912.244141,775.195374 907.019165,770.487793 
	C895.832825,760.409363 884.831665,750.123413 873.560364,740.141907 
	C858.094360,726.445801 842.453430,712.947021 826.875122,699.377869 
	C823.289490,696.254761 819.653687,693.189209 816.040894,690.097229 
	C830.267212,677.819885 844.493530,665.542603 859.205872,652.864807 
	C894.760071,620.312073 923.622314,583.522461 943.584717,540.096558 
	C960.144531,504.072449 970.852356,466.346375 976.534363,426.779907 
	C978.415283,412.598816 980.810913,398.786133 981.585205,384.883148 
	C982.432617,369.667847 983.413391,354.158112 981.472595,339.146942 
	C976.059631,297.280396 964.578979,256.785156 948.471741,217.806610 
	C939.359863,195.756531 928.253113,174.530807 918.044922,152.933777 
	C918.044922,152.933762 918.010681,152.994659 918.050903,152.654053 
	C917.686096,151.857391 917.281189,151.401321 916.876221,150.945236 
z"/>
<path fill="#056A30" opacity="1.000000" stroke="none" 
	d="
M224.939590,1682.214966 
	C218.788635,1658.497803 217.635040,1634.224243 219.243896,1610.050293 
	C221.503662,1576.096191 227.341919,1542.651733 239.952423,1510.757080 
	C249.372711,1486.931152 262.652222,1465.278564 278.446869,1445.248535 
	C288.393463,1432.634766 299.147095,1420.634888 309.895416,1408.680542 
	C331.376160,1384.789185 355.961914,1364.295166 381.029755,1344.333984 
	C418.505707,1314.492676 458.690979,1288.678955 499.763336,1264.181885 
	C504.844788,1261.151367 510.305267,1258.755981 515.985718,1256.103516 
	C501.668549,1270.817139 486.004913,1284.670410 472.438293,1300.339233 
	C442.969269,1334.374634 424.217712,1373.875488 417.174164,1418.544922 
	C413.683167,1440.684204 414.256012,1462.974243 415.690674,1485.290161 
	C417.280579,1510.020874 420.500641,1534.496704 426.001099,1558.645630 
	C440.039215,1620.278076 465.484406,1676.117188 510.758118,1721.376099 
	C521.043518,1731.658203 533.207886,1740.060791 544.507385,1749.328491 
	C545.211609,1749.906128 545.916870,1750.482422 547.431885,1751.722656 
	C537.537842,1752.384277 528.662659,1753.395630 519.778076,1753.486572 
	C500.128845,1753.687866 480.453613,1753.966675 460.829285,1753.192261 
	C443.239807,1752.498291 425.619873,1751.096436 408.160217,1748.860352 
	C347.989075,1741.153687 290.349609,1725.554443 238.587875,1692.430908 
	C234.956207,1690.107056 231.202744,1687.973511 227.153046,1685.192017 
	C226.189423,1684.419678 225.578659,1684.206787 224.967880,1683.993896 
	C224.967865,1683.994019 225.004013,1683.986572 225.044464,1683.702271 
	C225.036484,1683.016968 224.988037,1682.615967 224.939590,1682.214966 
z"/>
<path fill="#0EAB37" opacity="1.000000" stroke="none" 
	d="
M923.000000,785.062012 
	C930.406128,779.795837 937.916382,774.669006 945.192017,769.228333 
	C954.355652,762.375671 963.327576,755.266663 972.722290,748.465271 
	C974.535461,750.425293 975.826904,752.388000 977.510376,753.919800 
	C991.000488,766.194275 1004.596802,778.351990 1018.096558,790.615906 
	C1029.990967,801.421448 1041.862061,812.253906 1053.637939,823.188110 
	C1073.793091,841.902893 1093.816772,860.759583 1113.994019,879.450378 
	C1124.038330,888.754761 1134.381958,897.735352 1144.442627,907.022461 
	C1155.789185,917.496521 1166.937866,928.184692 1178.234497,938.713318 
	C1184.975098,944.995605 1191.971069,951.008728 1198.602417,957.402100 
	C1205.260864,963.821472 1211.609009,970.562622 1218.081787,977.552124 
	C1214.223999,990.598572 1210.804565,1003.405579 1206.428101,1015.876709 
	C1200.293823,1033.357544 1193.447510,1050.588379 1186.695435,1068.071533 
	C1186.517090,1068.632080 1186.549072,1069.047119 1186.580933,1069.462158 
	C1186.784912,1069.031250 1186.988770,1068.600464 1187.530518,1068.121582 
	C1198.225220,1056.095459 1208.571167,1044.108154 1218.945557,1032.145264 
	C1222.040161,1028.576782 1225.213989,1025.077026 1228.721802,1021.669128 
	C1233.500488,1025.467163 1238.051880,1028.986328 1242.269287,1032.868530 
	C1245.319580,1035.676270 1247.761719,1039.139648 1250.774536,1041.994507 
	C1254.122559,1045.166870 1257.908081,1047.873169 1261.324829,1050.978638 
	C1265.101807,1054.411499 1268.581177,1058.172119 1272.359375,1061.603760 
	C1280.866821,1069.330811 1289.590088,1076.824219 1297.972412,1084.682617 
	C1300.172241,1086.744995 1301.447021,1089.794067 1303.146606,1092.389893 
	C1287.904541,1110.372192 1273.196899,1128.846436 1257.242798,1146.173218 
	C1245.567139,1158.853516 1232.253662,1170.026001 1219.307739,1181.613770 
	C1217.675415,1179.450195 1216.700439,1177.234863 1215.084595,1175.689575 
	C1208.042114,1168.954712 1201.375610,1161.995605 1193.084351,1156.403320 
	C1185.223633,1151.101685 1179.493164,1142.725586 1172.482056,1136.063110 
	C1157.822388,1122.132324 1142.924927,1108.451904 1128.147827,1094.644287 
	C1120.946655,1087.915527 1113.793823,1081.134888 1106.623169,1074.373535 
	C1095.989258,1064.346558 1084.093506,1055.789429 1074.106445,1044.935425 
	C1066.526245,1036.697266 1057.255615,1030.036377 1048.991455,1022.398438 
	C1042.790283,1016.667114 1037.111694,1010.373901 1030.988770,1004.553528 
	C1021.568726,995.598877 1012.012146,986.786072 1002.432129,978.001892 
	C987.587341,964.390442 972.665527,950.863098 957.792542,937.282471 
	C945.934753,926.455017 934.110596,915.590820 922.245667,904.771240 
	C920.536438,903.212524 918.566895,901.930664 916.915894,900.317993 
	C910.224121,893.781982 903.827515,886.926575 896.908447,880.644714 
	C889.192688,873.639709 881.025452,867.132263 873.066589,860.394104 
	C872.694763,860.079285 872.473389,859.593018 872.125732,859.242249 
	C867.733032,854.810547 863.265686,850.450500 858.949951,845.945251 
	C855.535461,842.380981 852.303833,838.641541 849.188599,834.710876 
	C867.700745,822.571228 886.080994,810.800232 904.294434,798.776428 
	C910.738953,794.522034 916.776550,789.651245 923.000000,785.062012 
z"/>
<path fill="#17E73F" opacity="1.000000" stroke="none" 
	d="
M1079.985474,316.005920 
	C1070.368164,299.709320 1061.556763,282.864716 1050.937256,267.249695 
	C1036.479492,245.990738 1021.555847,224.910049 1005.134338,205.164856 
	C989.226624,186.037582 972.019409,167.786240 953.822876,150.823792 
	C934.912231,133.195694 914.151306,117.549683 894.150085,101.097061 
	C891.091248,98.580917 887.765991,96.388733 884.204590,94.067322 
	C883.845276,94.087929 883.900208,94.038780 883.868164,93.790237 
	C883.518433,93.380226 883.200623,93.218765 882.882874,93.057312 
	C882.882874,93.057312 882.950256,93.020271 882.835815,92.784554 
	C882.353882,92.421608 881.986389,92.294380 881.618835,92.167145 
	C866.556702,80.531097 851.494568,68.895058 836.432373,57.259048 
	C835.253357,56.348194 834.074158,55.437595 832.681152,54.227364 
	C845.656616,56.468941 859.012573,58.354073 872.009277,61.654057 
	C984.505798,90.217949 1083.951416,143.517563 1171.234253,219.880310 
	C1212.947510,256.374878 1251.634521,295.710205 1286.781860,338.620056 
	C1328.916138,390.059937 1359.729248,447.680023 1381.762695,510.117676 
	C1390.324097,534.379089 1397.467407,559.140991 1405.091064,584.373901 
	C1402.396606,583.995911 1399.337646,583.498169 1397.425537,581.747559 
	C1385.315063,570.660217 1373.446533,559.307922 1361.525146,548.014648 
	C1358.183472,544.848999 1355.030884,541.479492 1351.623657,538.388428 
	C1335.680786,523.925049 1319.656616,509.551178 1303.706787,495.095367 
	C1293.407471,485.760864 1283.216064,476.307373 1272.901123,466.990417 
	C1271.179810,465.435760 1269.073975,464.306885 1266.970459,462.672485 
	C1252.792114,438.000519 1239.552856,413.157623 1224.617554,389.380066 
	C1198.437988,347.701385 1167.032349,310.066254 1132.543335,274.973694 
	C1122.984619,265.247742 1113.904541,255.052811 1104.498779,245.174026 
	C1102.607910,243.188065 1100.236206,241.659866 1098.079590,239.669754 
	C1097.913696,239.141663 1097.754517,238.864410 1097.595337,238.587158 
	C1097.713135,239.071106 1097.830933,239.555054 1097.996948,240.386841 
	C1114.178223,266.561249 1128.664551,293.333374 1140.400513,321.384613 
	C1150.220215,344.855499 1158.189819,369.100342 1166.609497,392.996887 
	C1164.603394,392.262604 1162.660034,391.879089 1161.383057,390.745148 
	C1155.956299,385.926819 1150.808594,380.795258 1145.406860,375.947540 
	C1137.152954,368.540253 1128.568604,361.490479 1120.495239,353.895111 
	C1108.421387,342.536469 1096.691528,330.812714 1084.750000,319.312073 
	C1083.375488,317.988251 1081.583740,317.097504 1079.985474,316.005920 
z"/>
<path fill="#0C9C35" opacity="1.000000" stroke="none" 
	d="
M848.991028,834.979858 
	C852.303833,838.641541 855.535461,842.380981 858.949951,845.945251 
	C863.265686,850.450500 867.733032,854.810547 872.125732,859.242249 
	C872.473389,859.593018 872.694763,860.079285 873.066589,860.394104 
	C881.025452,867.132263 889.192688,873.639709 896.908447,880.644714 
	C903.827515,886.926575 910.224121,893.781982 916.915894,900.317993 
	C918.566895,901.930664 920.536438,903.212524 922.245667,904.771240 
	C934.110596,915.590820 945.934753,926.455017 957.792542,937.282471 
	C972.665527,950.863098 987.587341,964.390442 1002.432129,978.001892 
	C1012.012146,986.786072 1021.568726,995.598877 1030.988770,1004.553528 
	C1037.111694,1010.373901 1042.790283,1016.667114 1048.991455,1022.398438 
	C1057.255615,1030.036377 1066.526245,1036.697266 1074.106445,1044.935425 
	C1084.093506,1055.789429 1095.989258,1064.346558 1106.623169,1074.373535 
	C1113.793823,1081.134888 1120.946655,1087.915527 1128.147827,1094.644287 
	C1142.924927,1108.451904 1157.822388,1122.132324 1172.482056,1136.063110 
	C1179.493164,1142.725586 1185.223633,1151.101685 1193.084351,1156.403320 
	C1201.375610,1161.995605 1208.042114,1168.954712 1215.084595,1175.689575 
	C1216.700439,1177.234863 1217.675415,1179.450195 1218.984375,1181.713867 
	C1206.872314,1191.357422 1194.947144,1200.960327 1182.509033,1209.845093 
	C1169.129272,1219.402466 1155.268188,1228.286499 1141.296875,1237.220459 
	C1139.277710,1234.631958 1137.897705,1231.945312 1135.819580,1230.007202 
	C1129.885864,1224.473877 1123.563721,1219.358643 1117.588867,1213.867432 
	C1110.039551,1206.928955 1102.732910,1199.727051 1095.231934,1192.734985 
	C1076.413696,1175.193481 1057.543213,1157.708252 1038.697754,1140.195923 
	C1029.040649,1131.222046 1019.427246,1122.200684 1009.731140,1113.269165 
	C998.140686,1102.592651 986.466919,1092.006348 974.858582,1081.348999 
	C963.019958,1070.480103 951.234131,1059.553833 939.393799,1048.687012 
	C926.926147,1037.244507 914.327393,1025.943237 901.957886,1014.395874 
	C888.410522,1001.748840 875.096008,988.852722 861.611328,976.138062 
	C852.229492,967.291809 842.742615,958.556824 833.283020,949.793335 
	C824.640503,941.786743 816.003662,933.773438 807.301880,925.831543 
	C802.444214,921.398010 797.376404,917.193481 792.549316,912.727905 
	C782.978516,903.874084 773.508911,894.910889 764.193115,885.719543 
	C765.482178,884.689880 766.536316,883.867798 767.675049,883.187256 
	C788.336975,870.837952 808.997803,858.486633 829.685913,846.181213 
	C836.079712,842.378113 842.553711,838.709839 848.991028,834.979858 
z"/>
<path fill="#0A9034" opacity="1.000000" stroke="none" 
	d="
M763.997437,885.992920 
	C773.508911,894.910889 782.978516,903.874084 792.549316,912.727905 
	C797.376404,917.193481 802.444214,921.398010 807.301880,925.831543 
	C816.003662,933.773438 824.640503,941.786743 833.283020,949.793335 
	C842.742615,958.556824 852.229492,967.291809 861.611328,976.138062 
	C875.096008,988.852722 888.410522,1001.748840 901.957886,1014.395874 
	C914.327393,1025.943237 926.926147,1037.244507 939.393799,1048.687012 
	C951.234131,1059.553833 963.019958,1070.480103 974.858582,1081.348999 
	C986.466919,1092.006348 998.140686,1102.592651 1009.731140,1113.269165 
	C1019.427246,1122.200684 1029.040649,1131.222046 1038.697754,1140.195923 
	C1057.543213,1157.708252 1076.413696,1175.193481 1095.231934,1192.734985 
	C1102.732910,1199.727051 1110.039551,1206.928955 1117.588867,1213.867432 
	C1123.563721,1219.358643 1129.885864,1224.473877 1135.819580,1230.007202 
	C1137.897705,1231.945312 1139.277710,1234.631958 1140.984375,1237.323975 
	C1119.074463,1249.381592 1097.986206,1263.104004 1073.214722,1268.268066 
	C1059.401245,1271.147949 1046.366943,1267.395630 1034.809814,1259.622192 
	C1027.218872,1254.516479 1024.130249,1246.219482 1024.194458,1237.488037 
	C1024.272339,1226.893188 1025.269531,1216.251709 1026.637207,1205.730347 
	C1030.003540,1179.834839 1027.485718,1155.272095 1011.942871,1133.276367 
	C1003.671509,1121.571045 991.642212,1115.582886 978.871216,1109.905151 
	C948.698547,1096.490967 917.960815,1098.504272 886.847656,1104.552246 
	C879.505554,1105.979370 872.216309,1107.678101 864.444824,1108.887939 
	C863.000305,1107.226807 862.194946,1105.725220 860.998718,1104.664673 
	C850.954224,1095.758545 840.725525,1087.057251 830.778687,1078.044434 
	C822.807739,1070.821899 815.205322,1063.194458 807.347290,1055.845215 
	C787.623901,1037.398438 767.861938,1018.992920 748.089111,1000.599182 
	C734.472717,987.932495 720.841797,975.281128 707.158630,962.686768 
	C701.057922,957.071533 694.665771,951.766357 688.688965,946.025696 
	C685.172241,942.647949 682.211060,938.691833 679.198853,934.722046 
	C679.970154,934.111206 680.553467,933.791260 681.113464,933.434753 
	C687.084717,929.633667 693.052246,925.826843 699.394165,922.012390 
	C709.997864,916.346130 720.255676,910.737915 730.451355,905.019043 
	C741.663208,898.730103 752.817871,892.339355 763.997437,885.992920 
z"/>
<path fill="#373536" opacity="1.000000" stroke="none" 
	d="
M1321.860474,1468.091553 
	C1322.207031,1495.341675 1320.362427,1521.825806 1311.196533,1547.281982 
	C1297.846802,1584.357178 1272.488281,1607.377197 1232.940430,1613.464600 
	C1227.197998,1614.348633 1221.345215,1614.911255 1215.540894,1614.933594 
	C1180.718506,1615.067993 1145.895264,1615.000854 1111.072388,1615.001221 
	C1110.257935,1615.001221 1109.443481,1615.001099 1108.313843,1615.001099 
	C1108.313843,1526.583130 1108.313843,1438.382324 1108.313843,1350.207031 
	C1108.628662,1350.028076 1108.894653,1349.744263 1109.160400,1349.744507 
	C1147.645020,1349.785034 1186.154053,1349.006958 1224.608154,1350.120361 
	C1272.197876,1351.498291 1304.652222,1378.344238 1315.801636,1424.694824 
	C1319.164185,1438.673706 1319.904663,1453.283447 1321.860474,1468.091553 
M1266.692627,1446.957153 
	C1264.514404,1440.000000 1262.948242,1432.774902 1260.040649,1426.137329 
	C1252.085327,1407.976318 1237.807251,1397.414673 1218.115356,1396.193481 
	C1199.534180,1395.041138 1180.840942,1395.692871 1162.196899,1395.581177 
	C1161.765503,1395.578613 1161.332031,1395.935913 1160.881592,1396.133179 
	C1160.881592,1453.732422 1160.881592,1511.240112 1160.881592,1568.835449 
	C1178.486694,1568.835449 1195.787109,1569.206787 1213.056274,1568.632690 
	C1219.045166,1568.433472 1225.228271,1566.564453 1230.852661,1564.293701 
	C1249.639648,1556.708862 1258.959229,1541.137207 1263.960815,1522.577515 
	C1270.605713,1497.919922 1270.529297,1472.904785 1266.692627,1446.957153 
z"/>
<path fill="#EC6F01" opacity="1.000000" stroke="none" 
	d="
M620.097656,1499.000000 
	C620.097656,1449.049927 620.097656,1399.599731 620.097656,1350.014648 
	C621.419006,1349.852905 622.218262,1349.668457 623.017334,1349.669556 
	C660.681091,1349.722412 698.364197,1349.052734 736.003662,1350.043457 
	C783.834167,1351.302612 815.856628,1377.623169 828.016541,1423.970215 
	C835.090637,1450.932739 835.249634,1478.334229 832.508423,1505.840820 
	C830.699951,1523.987793 826.728088,1541.647949 818.930969,1558.243530 
	C803.137573,1591.858154 776.563843,1610.590088 739.698608,1613.965332 
	C725.473572,1615.267700 711.079285,1614.885742 696.760498,1614.963257 
	C671.442139,1615.100220 646.122559,1615.001465 620.097656,1615.001465 
	C620.097656,1576.342407 620.097656,1537.921143 620.097656,1499.000000 
M773.164856,1531.606689 
	C782.126099,1507.946411 782.518311,1483.357178 780.368835,1458.668091 
	C779.597351,1449.807739 777.635254,1440.843994 774.785278,1432.411255 
	C767.059326,1409.550903 750.964661,1396.762573 726.544983,1395.824707 
	C711.233398,1395.236572 695.888367,1395.516968 680.558350,1395.413452 
	C678.102356,1395.396973 675.646118,1395.411133 673.127075,1395.411133 
	C673.127075,1453.580078 673.127075,1511.155029 673.127075,1569.082397 
	C688.075439,1569.082397 702.711548,1569.057861 717.347595,1569.087769 
	C744.019165,1569.142334 762.806152,1557.297729 773.164856,1531.606689 
z"/>
<path fill="#119418" opacity="1.000000" stroke="none" 
	d="
M764.193115,885.719543 
	C752.817871,892.339355 741.663208,898.730103 730.451355,905.019043 
	C720.255676,910.737915 709.997864,916.346130 699.088501,921.860229 
	C691.610229,915.684448 684.829468,909.630493 678.007568,903.623230 
	C664.591614,891.809448 651.177002,879.994080 637.712341,868.235901 
	C631.732422,863.013794 625.278931,858.280884 619.696167,852.673157 
	C615.011963,847.967957 607.948669,845.389587 606.030151,838.093262 
	C627.858337,824.086975 649.757874,810.190308 671.498840,796.049866 
	C707.633118,772.547791 743.536316,748.693909 777.289917,721.808105 
	C790.183044,711.538330 802.704712,700.802185 815.718262,690.187866 
	C819.653687,693.189209 823.289490,696.254761 826.875122,699.377869 
	C842.453430,712.947021 858.094360,726.445801 873.560364,740.141907 
	C884.831665,750.123413 895.832825,760.409363 907.019165,770.487793 
	C912.244141,775.195374 917.622314,779.733032 922.965515,784.704834 
	C916.776550,789.651245 910.738953,794.522034 904.294434,798.776428 
	C886.080994,810.800232 867.700745,822.571228 849.188599,834.710815 
	C842.553711,838.709839 836.079712,842.378113 829.685913,846.181213 
	C808.997803,858.486633 788.336975,870.837952 767.675049,883.187256 
	C766.536316,883.867798 765.482178,884.689880 764.193115,885.719543 
z"/>
<path fill="#EC6F01" opacity="1.000000" stroke="none" 
	d="
M913.626770,1546.196777 
	C919.760315,1565.082886 933.947021,1573.184082 951.916870,1575.641113 
	C965.353882,1577.478638 978.903625,1577.023804 992.003906,1572.967163 
	C996.552307,1571.558716 1001.015564,1569.468628 1005.075562,1566.970947 
	C1014.428833,1561.216919 1018.529480,1552.485718 1017.758972,1541.592041 
	C1016.984436,1530.641235 1011.836548,1522.230835 1001.274780,1518.757080 
	C985.827576,1513.676392 970.007324,1509.742065 954.471924,1504.914185 
	C938.299438,1499.888306 921.984375,1495.122803 906.251099,1488.924683 
	C876.707336,1477.286133 862.523560,1458.062256 865.591309,1417.181152 
	C868.669128,1376.163940 899.046692,1350.556885 938.366150,1344.124390 
	C960.525574,1340.499146 982.612000,1340.792358 1003.860229,1348.933472 
	C1036.996826,1361.629517 1055.542847,1386.195312 1060.949341,1421.004150 
	C1061.331543,1423.464478 1061.524780,1425.954224 1061.845947,1428.782715 
	C1044.779907,1428.782715 1027.881958,1428.782715 1010.750183,1428.782715 
	C1010.307739,1426.438843 1009.982727,1424.152710 1009.437927,1421.920044 
	C1005.177002,1404.457520 990.599792,1392.059570 970.825073,1389.070557 
	C959.499084,1387.358521 948.238098,1387.298218 937.244385,1391.022095 
	C923.768982,1395.586670 915.738403,1405.798584 914.826538,1419.279175 
	C914.025452,1431.121582 917.540894,1438.177734 928.635864,1442.598267 
	C940.020874,1447.134277 951.895935,1450.493042 963.667664,1453.993286 
	C981.975159,1459.437256 1000.419373,1464.422852 1018.710571,1469.919312 
	C1023.767395,1471.438843 1028.547974,1473.951660 1033.351196,1476.228394 
	C1052.067139,1485.099854 1062.883301,1499.869873 1066.253296,1520.282104 
	C1068.950439,1536.618042 1069.198486,1552.810669 1063.471558,1568.586426 
	C1055.630249,1590.186523 1039.883057,1604.504395 1019.077942,1612.563965 
	C984.786316,1625.847778 949.643555,1626.644531 915.061218,1613.975830 
	C883.740479,1602.502197 867.037659,1578.513672 862.059631,1545.969360 
	C861.434387,1541.882080 861.175354,1537.738770 860.707947,1533.249023 
	C877.719177,1533.249023 894.300781,1533.249023 911.073242,1533.249023 
	C911.867920,1537.397705 912.674561,1541.608887 913.626770,1546.196777 
z"/>
<path fill="#373536" opacity="1.000000" stroke="none" 
	d="
M1379.000854,1349.597412 
	C1390.305176,1349.597534 1401.109741,1349.597534 1412.619995,1349.597534 
	C1412.619995,1351.883667 1412.619995,1353.805786 1412.619995,1355.727905 
	C1412.620239,1408.383423 1412.556763,1461.038940 1412.693115,1513.694092 
	C1412.712524,1521.159424 1412.996582,1528.755371 1414.373535,1536.061768 
	C1418.989868,1560.558594 1434.004150,1572.902222 1459.840210,1573.568848 
	C1466.437744,1573.739136 1473.210205,1573.091309 1479.664795,1571.709473 
	C1497.736572,1567.840332 1507.820679,1555.030273 1509.974731,1533.816772 
	C1510.646118,1527.203125 1511.006958,1520.528809 1511.017334,1513.881470 
	C1511.099854,1461.059448 1511.063599,1408.237305 1511.063843,1355.415161 
	C1511.063843,1353.627319 1511.063843,1351.839355 1511.063843,1349.838867 
	C1528.780151,1349.838867 1546.046997,1349.838867 1563.819702,1349.838867 
	C1563.819702,1351.687134 1563.819702,1353.299683 1563.819702,1354.912354 
	C1563.819580,1407.734497 1563.848511,1460.556641 1563.802246,1513.378784 
	C1563.787476,1530.244995 1562.436035,1546.975342 1557.897095,1563.318604 
	C1550.180908,1591.101929 1532.779175,1609.452515 1504.727417,1616.829468 
	C1478.007324,1623.856323 1450.972412,1624.298950 1424.156250,1617.624634 
	C1390.688477,1609.294678 1371.220459,1586.966431 1364.262939,1553.814087 
	C1361.682007,1541.516113 1360.293945,1528.752441 1360.193481,1516.186523 
	C1359.759155,1461.868164 1360.002930,1407.544434 1360.000000,1353.222656 
	C1359.999878,1352.232178 1360.000000,1351.241821 1360.000000,1349.597412 
	C1366.306519,1349.597412 1372.403687,1349.597412 1379.000854,1349.597412 
z"/>
<path fill="#E36636" opacity="1.000000" stroke="none" 
	d="
M976.334473,427.108490 
	C970.852356,466.346375 960.144531,504.072449 943.584717,540.096558 
	C923.622314,583.522461 894.760071,620.312073 859.407959,652.577698 
	C860.514771,640.593445 860.589722,628.587036 857.447327,616.668945 
	C851.958252,595.850830 840.158264,578.975891 824.061768,565.303223 
	C813.479065,556.314148 801.648071,548.794800 790.203308,540.332520 
	C795.156982,534.062378 800.695251,528.378235 805.335510,522.037048 
	C821.687012,499.691711 838.754639,477.773499 853.611023,454.457428 
	C869.380981,429.707275 883.360535,403.774841 897.280457,377.905914 
	C903.702087,365.971863 908.120911,352.960144 913.867981,340.515076 
	C920.351013,349.667480 926.248169,358.858032 932.512085,367.791443 
	C944.760681,385.259827 957.167847,402.617889 969.632141,419.933258 
	C971.528748,422.567963 974.083862,424.728607 976.334473,427.108490 
z"/>
<path fill="#0DA223" opacity="1.000000" stroke="none" 
	d="
M605.688721,838.143921 
	C607.948669,845.389587 615.011963,847.967957 619.696167,852.673157 
	C625.278931,858.280884 631.732422,863.013794 637.712341,868.235901 
	C651.177002,879.994080 664.591614,891.809448 678.007568,903.623230 
	C684.829468,909.630493 691.610229,915.684448 698.715210,921.869507 
	C693.052246,925.826843 687.084717,929.633667 681.113464,933.434753 
	C680.553467,933.791260 679.970154,934.111206 678.879639,934.861450 
	C655.266846,948.365906 632.150391,961.418884 609.094299,974.577698 
	C603.949890,977.513733 599.017700,980.821716 593.632507,984.005310 
	C578.024231,992.698547 562.767212,1001.337830 547.519592,1009.993713 
	C534.013000,1017.661133 520.516846,1025.346924 506.866638,1032.719238 
	C498.117828,1024.457886 489.587830,1016.425293 480.898651,1008.568909 
	C473.040558,1001.463989 465.016052,994.542969 457.051270,987.556335 
	C449.369232,980.817627 441.473755,974.306519 434.047852,967.297180 
	C429.218353,962.738708 422.410492,960.054993 420.027435,953.077820 
	C425.960144,949.572266 431.991302,946.221680 437.805450,942.529419 
	C450.560974,934.428833 463.076904,925.945862 475.920898,917.990723 
	C519.008545,891.304016 562.197205,864.780457 605.688721,838.143921 
z"/>
<path fill="#067430" opacity="1.000000" stroke="none" 
	d="
M507.016083,1033.024658 
	C520.516846,1025.346924 534.013000,1017.661133 547.519592,1009.993713 
	C562.767212,1001.337830 578.024231,992.698547 593.859863,984.285522 
	C597.630615,986.184143 601.312927,987.293701 603.919556,989.612488 
	C614.090942,998.660522 623.885193,1008.130737 633.888367,1017.369690 
	C645.835876,1028.404541 657.894531,1039.319214 669.831787,1050.365112 
	C688.721436,1067.843872 707.567810,1085.369629 726.397949,1102.912598 
	C737.335754,1113.102661 748.220703,1123.349609 759.091492,1133.611084 
	C760.828247,1135.250488 762.365417,1137.101440 763.994873,1138.854492 
	C722.711243,1153.601074 681.427612,1168.347778 639.467285,1182.958984 
	C638.013000,1181.790283 637.377075,1180.599976 636.434937,1179.748657 
	C629.665344,1173.631958 622.768311,1167.655518 616.034790,1161.500000 
	C599.512329,1146.395752 582.989319,1131.291138 566.592224,1116.051392 
	C549.921509,1100.557251 533.438232,1084.861572 516.794495,1069.338135 
	C511.218933,1064.137817 505.304169,1059.301147 499.731659,1054.097656 
	C496.301239,1050.894409 493.224976,1047.312012 490.150055,1043.606445 
	C495.878967,1039.883667 501.447510,1036.454102 507.016083,1033.024658 
z"/>
<path fill="#03CE46" opacity="1.000000" stroke="none" 
	d="
M224.599335,1682.127930 
	C224.988037,1682.615967 225.036484,1683.016968 225.048431,1683.720337 
	C209.540771,1674.341675 193.570145,1665.366455 178.697083,1654.840332 
	C142.015274,1628.879517 110.595261,1597.644165 88.370094,1558.195312 
	C67.360603,1520.904297 54.047421,1480.848877 47.864807,1438.449463 
	C39.609070,1381.832886 44.835888,1326.529785 65.098503,1273.001099 
	C71.303497,1256.609131 79.847115,1241.102539 87.695145,1225.391235 
	C94.702202,1231.552490 101.355080,1237.489380 107.961235,1243.478027 
	C122.578522,1256.728882 137.152298,1270.027710 151.794128,1283.251221 
	C154.442841,1285.643433 157.331680,1287.769775 160.109650,1290.018799 
	C151.955032,1304.261108 143.161896,1318.181641 135.785767,1332.816284 
	C122.592697,1358.992432 114.388649,1386.900513 111.201942,1416.028564 
	C106.455269,1459.415649 112.582031,1501.554932 127.788025,1542.385620 
	C140.694717,1577.042114 157.805817,1609.485718 180.077240,1639.060181 
	C192.555222,1655.629761 207.502609,1669.799561 224.599335,1682.127930 
z"/>
<path fill="#06BD38" opacity="1.000000" stroke="none" 
	d="
M160.396439,1289.855225 
	C157.331680,1287.769775 154.442841,1285.643433 151.794128,1283.251221 
	C137.152298,1270.027710 122.578522,1256.728882 107.961235,1243.478027 
	C101.355080,1237.489380 94.702202,1231.552490 88.019341,1225.250244 
	C97.849289,1207.609009 109.950417,1192.005371 123.960991,1177.868042 
	C163.657578,1137.812012 206.450623,1101.323242 251.747070,1067.558838 
	C252.227661,1068.117920 252.261230,1068.528076 252.483017,1068.716675 
	C262.802216,1077.491943 273.277313,1086.089355 283.438446,1095.043335 
	C298.500702,1108.316162 313.385803,1121.791870 328.206329,1135.334229 
	C329.635376,1136.640015 330.079254,1139.023926 330.980469,1140.907349 
	C303.616913,1160.296997 275.712006,1178.977783 249.076050,1199.320190 
	C230.655563,1213.388184 213.089523,1228.864868 196.815704,1245.363281 
	C183.488892,1258.874146 172.633957,1274.823364 160.396439,1289.855225 
z"/>
<path fill="#03632E" opacity="1.000000" stroke="none" 
	d="
M489.989685,1043.899780 
	C493.224976,1047.312012 496.301239,1050.894409 499.731659,1054.097656 
	C505.304169,1059.301147 511.218933,1064.137817 516.794495,1069.338135 
	C533.438232,1084.861572 549.921509,1100.557251 566.592224,1116.051392 
	C582.989319,1131.291138 599.512329,1146.395752 616.034790,1161.500000 
	C622.768311,1167.655518 629.665344,1173.631958 636.434937,1179.748657 
	C637.377075,1180.599976 638.013000,1181.790283 639.112122,1182.998169 
	C602.227539,1198.875122 567.254272,1218.552612 534.179871,1242.238281 
	C528.059143,1237.197632 522.109619,1232.179565 516.425110,1226.877319 
	C499.559875,1211.146240 482.847443,1195.251343 465.980988,1179.521606 
	C453.724976,1168.091431 441.335541,1156.803955 428.975494,1145.485718 
	C417.737366,1135.194702 406.428040,1124.981323 395.219452,1114.658325 
	C392.425140,1112.084839 389.898193,1109.220947 387.280579,1105.887695 
	C411.932037,1090.328613 436.511688,1075.307007 461.190369,1060.449707 
	C470.674072,1054.740234 480.383240,1049.405396 489.989685,1043.899780 
z"/>
<path fill="#0AAE2D" opacity="1.000000" stroke="none" 
	d="
M490.150055,1043.606445 
	C480.383240,1049.405396 470.674072,1054.740234 461.190369,1060.449707 
	C436.511688,1075.307007 411.932037,1090.328613 387.144958,1105.568359 
	C372.543732,1114.851929 358.100494,1123.836060 343.683319,1132.861938 
	C339.620911,1135.405151 335.634918,1138.070435 331.297150,1140.793579 
	C330.079254,1139.023926 329.635376,1136.640015 328.206329,1135.334229 
	C313.385803,1121.791870 298.500702,1108.316162 283.438446,1095.043335 
	C273.277313,1086.089355 262.802216,1077.491943 252.483017,1068.716675 
	C252.261230,1068.528076 252.227661,1068.117920 252.070312,1067.471680 
	C273.741119,1051.397949 295.047272,1035.070923 317.248138,1020.067871 
	C350.953918,997.289917 385.280884,975.431152 419.685730,953.129883 
	C422.410492,960.054993 429.218353,962.738708 434.047852,967.297180 
	C441.473755,974.306519 449.369232,980.817627 457.051270,987.556335 
	C465.016052,994.542969 473.040558,1001.463989 480.898651,1008.568909 
	C489.587830,1016.425293 498.117828,1024.457886 506.866608,1032.719116 
	C501.447510,1036.454102 495.878967,1039.883667 490.150055,1043.606445 
z"/>
<path fill="#088332" opacity="1.000000" stroke="none" 
	d="
M764.371216,1138.865479 
	C762.365417,1137.101440 760.828247,1135.250488 759.091492,1133.611084 
	C748.220703,1123.349609 737.335754,1113.102661 726.397949,1102.912598 
	C707.567810,1085.369629 688.721436,1067.843872 669.831787,1050.365112 
	C657.894531,1039.319214 645.835876,1028.404541 633.888367,1017.369690 
	C623.885193,1008.130737 614.090942,998.660522 603.919556,989.612488 
	C601.312927,987.293701 597.630615,986.184143 594.215210,984.238770 
	C599.017700,980.821716 603.949890,977.513733 609.094299,974.577698 
	C632.150391,961.418884 655.266846,948.365906 678.680786,935.135376 
	C682.211060,938.691833 685.172241,942.647949 688.688965,946.025696 
	C694.665771,951.766357 701.057922,957.071533 707.158630,962.686768 
	C720.841797,975.281128 734.472717,987.932495 748.089111,1000.599182 
	C767.861938,1018.992920 787.623901,1037.398438 807.347290,1055.845215 
	C815.205322,1063.194458 822.807739,1070.821899 830.778687,1078.044434 
	C840.725525,1087.057251 850.954224,1095.758545 860.998718,1104.664673 
	C862.194946,1105.725220 863.000305,1107.226807 864.033691,1108.886719 
	C831.751221,1118.854004 799.421692,1128.457764 767.093872,1138.067505 
	C766.301636,1138.302979 765.529236,1138.605469 764.371216,1138.865479 
z"/>
<path fill="#14D73D" opacity="1.000000" stroke="none" 
	d="
M1419.937012,653.988403 
	C1421.936646,667.365906 1424.432617,680.691711 1425.833130,694.131592 
	C1428.826416,722.854309 1429.445435,751.685974 1426.872681,780.467957 
	C1425.436523,796.533813 1422.903809,812.501709 1420.366699,828.700867 
	C1414.849731,824.767090 1410.308350,819.648071 1404.619873,816.928955 
	C1401.588745,815.480042 1400.386108,813.233826 1398.252075,811.481934 
	C1394.761597,808.616699 1391.233765,805.797241 1387.730347,802.947754 
	C1387.133789,802.462524 1386.499878,801.989319 1386.020996,801.398865 
	C1383.771118,798.625000 1381.895142,795.439636 1379.251221,793.126648 
	C1376.985474,791.144531 1373.769409,790.289795 1371.154175,788.648743 
	C1369.898682,787.860779 1368.872192,786.521057 1368.091187,785.221313 
	C1367.448853,784.152649 1367.704346,782.385254 1366.903198,781.597534 
	C1362.421997,777.191589 1358.012451,772.634888 1353.045654,768.824097 
	C1348.694702,765.485657 1343.863525,762.564514 1338.066895,761.560425 
	C1338.338745,756.819153 1338.830078,752.530945 1338.929077,748.233643 
	C1339.388184,728.310913 1339.253052,708.383911 1336.010132,688.667603 
	C1332.012451,664.364502 1328.504028,639.926758 1323.109375,615.923584 
	C1318.261108,594.351440 1311.147339,573.288452 1305.380493,552.036011 
	C1307.872925,553.599487 1310.173218,554.951843 1312.136230,556.685730 
	C1321.703247,565.135925 1331.280151,573.579407 1340.667725,582.227051 
	C1359.547119,599.618225 1378.318604,617.126587 1397.107300,634.616028 
	C1403.307129,640.387146 1409.370728,646.305786 1415.625610,652.015625 
	C1416.736938,653.030151 1418.483765,653.348511 1419.937012,653.988403 
z"/>
<path fill="#12C73B" opacity="1.000000" stroke="none" 
	d="
M1338.105713,762.009216 
	C1343.863525,762.564514 1348.694702,765.485657 1353.045654,768.824097 
	C1358.012451,772.634888 1362.421997,777.191589 1366.903198,781.597534 
	C1367.704346,782.385254 1367.448853,784.152649 1368.091187,785.221313 
	C1368.872192,786.521057 1369.898682,787.860779 1371.154175,788.648743 
	C1373.769409,790.289795 1376.985474,791.144531 1379.251221,793.126648 
	C1381.895142,795.439636 1383.771118,798.625000 1386.020996,801.398865 
	C1386.499878,801.989319 1387.133789,802.462524 1387.730347,802.947754 
	C1391.233765,805.797241 1394.761597,808.616699 1398.252075,811.481934 
	C1400.386108,813.233826 1401.588745,815.480042 1404.619873,816.928955 
	C1410.308350,819.648071 1414.849731,824.767090 1420.209351,829.051392 
	C1411.900879,880.907837 1396.524292,930.488831 1373.228394,977.897705 
	C1371.833618,977.619507 1370.993164,977.368286 1370.405273,976.837280 
	C1359.457397,966.949890 1348.485229,957.088379 1337.631348,947.098450 
	C1327.270996,937.562866 1317.114014,927.805664 1306.710938,918.317749 
	C1303.342651,915.245789 1299.478638,912.717285 1295.912598,909.579285 
	C1297.885498,905.008667 1299.952759,900.864807 1301.656738,896.576599 
	C1306.218018,885.097229 1310.623535,873.555969 1315.345703,861.789185 
	C1327.260010,829.302551 1334.799561,796.134521 1338.105713,762.009216 
z"/>
<path fill="#10B839" opacity="1.000000" stroke="none" 
	d="
M1295.841431,909.940186 
	C1299.478638,912.717285 1303.342651,915.245789 1306.710938,918.317749 
	C1317.114014,927.805664 1327.270996,937.562866 1337.631348,947.098450 
	C1348.485229,957.088379 1359.457397,966.949890 1370.405273,976.837280 
	C1370.993164,977.368286 1371.833618,977.619507 1372.923706,978.052124 
	C1369.344971,986.182007 1365.765747,994.466187 1361.376099,1002.296143 
	C1352.510742,1018.109802 1343.723267,1034.009399 1333.933350,1049.250122 
	C1324.509033,1063.921875 1313.860352,1077.807251 1303.448120,1092.213989 
	C1301.447021,1089.794067 1300.172241,1086.744995 1297.972412,1084.682617 
	C1289.590088,1076.824219 1280.866821,1069.330811 1272.359375,1061.603760 
	C1268.581177,1058.172119 1265.101807,1054.411499 1261.324829,1050.978638 
	C1257.908081,1047.873169 1254.122559,1045.166870 1250.774536,1041.994507 
	C1247.761719,1039.139648 1245.319580,1035.676270 1242.269287,1032.868530 
	C1238.051880,1028.986328 1233.500488,1025.467163 1228.839844,1021.342468 
	C1229.348022,1019.447449 1229.996826,1017.929749 1230.885132,1016.568420 
	C1245.588745,994.037476 1260.700195,971.760986 1274.899536,948.917297 
	C1282.670288,936.416077 1288.910889,922.963684 1295.841431,909.940186 
z"/>
<path fill="#1FE047" opacity="1.000000" stroke="none" 
	d="
M1420.121338,653.743042 
	C1418.483765,653.348511 1416.736938,653.030151 1415.625610,652.015625 
	C1409.370728,646.305786 1403.307129,640.387146 1397.107300,634.616028 
	C1378.318604,617.126587 1359.547119,599.618225 1340.667725,582.227051 
	C1331.280151,573.579407 1321.703247,565.135925 1312.136230,556.685730 
	C1310.173218,554.951843 1307.872925,553.599487 1305.202637,551.720886 
	C1293.757202,521.232117 1281.518311,491.653717 1267.145874,462.981232 
	C1269.073975,464.306885 1271.179810,465.435760 1272.901123,466.990417 
	C1283.216064,476.307373 1293.407471,485.760864 1303.706787,495.095367 
	C1319.656616,509.551178 1335.680786,523.925049 1351.623657,538.388428 
	C1355.030884,541.479492 1358.183472,544.848999 1361.525146,548.014648 
	C1373.446533,559.307922 1385.315063,570.660217 1397.425537,581.747559 
	C1399.337646,583.498169 1402.396606,583.995911 1405.100098,584.754517 
	C1409.224243,602.018250 1413.209106,619.592529 1417.102051,637.187073 
	C1418.298706,642.595459 1419.244751,648.059265 1420.121338,653.743042 
z"/>
<path fill="#04552E" opacity="1.000000" stroke="none" 
	d="
M637.167419,1700.139160 
	C637.167542,1718.912109 637.167542,1737.206909 637.167542,1755.751465 
	C632.057495,1755.751465 627.306030,1755.751465 622.273682,1755.751465 
	C622.273682,1727.669800 622.273682,1699.615479 622.273682,1671.323242 
	C630.344482,1671.323242 638.275391,1671.323242 646.639099,1671.323242 
	C651.316833,1689.824951 656.010071,1708.387817 660.703247,1726.950562 
	C661.029358,1726.924561 661.355408,1726.898560 661.681458,1726.872559 
	C666.278687,1708.450439 670.875916,1690.028198 675.531677,1671.371216 
	C683.589111,1671.371216 691.518005,1671.371216 699.813354,1671.371216 
	C699.813354,1699.382935 699.813354,1727.426758 699.813354,1755.737793 
	C695.122253,1755.737793 690.368225,1755.737793 685.124084,1755.737793 
	C685.124084,1734.753296 685.124084,1713.751953 685.124084,1692.750610 
	C684.818481,1692.716187 684.512878,1692.681763 684.207275,1692.647339 
	C679.133972,1713.714600 674.060669,1734.781738 668.980164,1755.878906 
	C663.635498,1755.878906 658.658081,1755.878906 653.213928,1755.878906 
	C648.166687,1734.891113 643.109680,1713.862549 638.052612,1692.834106 
	C637.757507,1692.883301 637.462402,1692.932495 637.167297,1692.981689 
	C637.167297,1695.208252 637.167297,1697.434692 637.167419,1700.139160 
z"/>
<path fill="#04562E" opacity="1.000000" stroke="none" 
	d="
M966.999878,1756.003662 
	C958.351135,1756.003784 950.202332,1756.003784 941.804688,1756.003784 
	C941.804688,1727.651733 941.804688,1699.575073 941.804688,1671.989136 
	C957.494202,1671.989136 972.943481,1671.561401 988.352356,1672.164795 
	C996.371704,1672.478882 1003.155945,1679.594727 1004.980286,1687.336914 
	C1007.165039,1696.608521 1004.035645,1704.054932 994.882446,1710.770020 
	C1003.094482,1714.179932 1008.362610,1719.765869 1009.446411,1728.793579 
	C1011.015320,1741.862183 1002.477905,1753.628418 989.437195,1755.172119 
	C982.193420,1756.029541 974.816711,1755.763428 966.999878,1756.003662 
M978.159790,1741.664917 
	C979.483337,1741.560913 980.811523,1741.497070 982.129761,1741.346313 
	C988.979309,1740.562500 992.449280,1737.208252 992.742126,1731.121826 
	C993.042419,1724.880981 989.568359,1720.141602 982.897217,1719.636230 
	C974.724670,1719.017090 966.469543,1719.488647 958.215454,1719.488647 
	C958.215454,1726.781006 958.215454,1734.019287 958.215454,1741.695679 
	C964.698242,1741.695679 970.962891,1741.695679 978.159790,1741.664917 
M973.403137,1685.198242 
	C968.316101,1685.198242 963.229065,1685.198242 958.337585,1685.198242 
	C958.337585,1692.165771 958.337585,1698.411987 958.337585,1704.397217 
	C966.155029,1704.397217 973.650879,1704.813965 981.075134,1704.263550 
	C986.870667,1703.833984 989.845886,1699.824951 989.652954,1694.520630 
	C989.462402,1689.281738 986.584717,1686.274536 980.842896,1685.536865 
	C978.704468,1685.262085 976.524475,1685.310181 973.403137,1685.198242 
z"/>
<path fill="#06572F" opacity="1.000000" stroke="none" 
	d="
M1484.922852,1731.961548 
	C1481.416748,1720.304932 1481.338623,1708.919067 1484.195923,1697.590454 
	C1488.853149,1679.126343 1504.017944,1668.720581 1524.288940,1669.745605 
	C1543.539917,1670.719116 1557.016724,1682.722778 1559.984375,1701.728638 
	C1562.390869,1717.140747 1561.231567,1731.916138 1550.963989,1745.491699 
	C1555.259033,1747.952637 1559.332520,1750.286499 1563.790405,1752.840820 
	C1561.968628,1756.543457 1560.044800,1760.453247 1557.686646,1765.245972 
	C1552.756836,1762.208130 1548.164917,1759.660400 1543.901855,1756.647339 
	C1541.285400,1754.797974 1539.245361,1754.080933 1535.887085,1755.269775 
	C1526.005981,1758.768433 1515.886719,1758.422363 1506.078491,1754.822388 
	C1495.394043,1750.900757 1488.670166,1742.997803 1484.922852,1731.961548 
M1500.663330,1701.417603 
	C1498.352661,1711.016357 1498.334717,1720.581909 1501.942383,1729.841797 
	C1506.146362,1740.632690 1516.712036,1745.674561 1527.466553,1741.720703 
	C1524.036865,1739.838135 1521.082764,1738.216553 1517.930542,1736.486328 
	C1519.431030,1733.276733 1520.886475,1730.163330 1522.607178,1726.482422 
	C1527.878174,1729.434814 1532.869263,1732.230469 1537.841064,1735.015381 
	C1543.618652,1727.830322 1545.531372,1716.424927 1543.134155,1703.611328 
	C1540.954346,1691.959473 1533.753540,1685.065552 1522.953491,1684.290771 
	C1512.576050,1683.546143 1504.550781,1689.485107 1500.663330,1701.417603 
z"/>
<path fill="#06572F" opacity="1.000000" stroke="none" 
	d="
M1144.109375,1684.603149 
	C1147.984863,1673.354370 1155.556152,1668.964722 1168.992310,1669.796875 
	C1179.347168,1670.438232 1186.514893,1676.085449 1188.469116,1685.246460 
	C1189.875732,1691.840088 1187.725342,1697.436890 1183.116455,1702.063965 
	C1180.553955,1704.636475 1177.578613,1706.797852 1174.396606,1709.475220 
	C1177.863770,1714.347412 1181.355103,1719.253296 1185.399780,1724.936768 
	C1186.722534,1721.477051 1187.742798,1718.808716 1189.022461,1715.461426 
	C1193.336182,1716.411011 1197.766602,1717.386230 1203.181396,1718.578003 
	C1200.901978,1724.698975 1198.753174,1730.468872 1196.417114,1736.741943 
	C1200.079102,1739.573120 1204.104248,1742.685059 1208.423584,1746.024536 
	C1205.385742,1750.075562 1202.421997,1754.027832 1199.056274,1758.515991 
	C1194.594971,1755.325806 1190.321167,1752.269653 1185.662354,1748.938232 
	C1177.375000,1756.627075 1167.130493,1758.673706 1155.913818,1757.053223 
	C1145.873657,1755.602661 1138.397705,1750.544067 1135.078735,1740.811768 
	C1131.739990,1731.022339 1133.856812,1721.998535 1141.249390,1714.656982 
	C1144.387207,1711.541016 1148.210815,1709.115356 1151.779175,1706.332153 
	C1147.183105,1700.047852 1142.877930,1693.522095 1144.109375,1684.603149 
M1160.943359,1718.156128 
	C1155.944214,1718.635620 1150.894043,1723.909912 1149.936035,1729.651855 
	C1148.923828,1735.718872 1151.265503,1740.783936 1156.113770,1743.013916 
	C1162.197876,1745.812256 1170.158447,1743.490967 1175.674438,1737.226196 
	C1170.936035,1731.081421 1166.179688,1724.913574 1160.943359,1718.156128 
M1162.084839,1694.318604 
	C1163.449219,1695.961792 1164.813721,1697.604980 1166.416260,1699.534912 
	C1168.754517,1697.455811 1171.467163,1695.953369 1172.743652,1693.653687 
	C1174.027588,1691.340820 1175.014160,1687.711426 1174.047852,1685.622314 
	C1173.063354,1683.493530 1169.619141,1681.554688 1167.108521,1681.357422 
	C1164.801514,1681.176025 1161.639160,1682.856201 1160.039795,1684.729126 
	C1157.403809,1687.815674 1159.815674,1690.919678 1162.084839,1694.318604 
z"/>
<path fill="#075830" opacity="1.000000" stroke="none" 
	d="
M1345.005371,1671.078857 
	C1352.158447,1671.122803 1358.827271,1670.898193 1365.463501,1671.264404 
	C1381.291626,1672.137451 1390.913696,1679.384644 1395.433594,1694.425659 
	C1399.446411,1707.779541 1399.556641,1721.352783 1394.854858,1734.625122 
	C1390.537231,1746.812622 1381.956177,1754.639038 1368.880005,1755.457397 
	C1356.168335,1756.252808 1343.367920,1755.630127 1330.368042,1755.630127 
	C1330.368042,1727.678223 1330.368042,1699.785889 1330.368042,1671.078735 
	C1335.021606,1671.078735 1339.764038,1671.078735 1345.005371,1671.078857 
M1346.759155,1692.511841 
	C1346.759155,1708.752441 1346.759155,1724.993042 1346.759155,1741.208008 
	C1353.536499,1741.208008 1359.811768,1741.453613 1366.059082,1741.140991 
	C1372.734131,1740.807007 1377.201050,1737.162720 1379.038208,1730.681396 
	C1382.091675,1719.908325 1382.086182,1709.016968 1379.410889,1698.209961 
	C1377.917358,1692.177490 1374.127563,1687.485718 1367.788208,1686.539917 
	C1361.005737,1685.528198 1354.057739,1685.626221 1346.759521,1685.216064 
	C1346.759521,1687.920410 1346.759521,1689.717041 1346.759155,1692.511841 
z"/>
<path fill="#06572F" opacity="1.000000" stroke="none" 
	d="
M1308.940918,1746.880981 
	C1296.966309,1759.735596 1282.331665,1759.253418 1267.535889,1755.359253 
	C1255.998901,1752.322632 1249.436890,1742.276855 1248.471313,1728.504150 
	C1253.521484,1727.968628 1258.590454,1727.431152 1263.721313,1726.887085 
	C1264.131592,1727.906982 1264.555054,1728.638794 1264.723022,1729.425293 
	C1267.693970,1743.335693 1279.986816,1744.671509 1289.153564,1742.002441 
	C1294.243774,1740.520508 1297.781860,1736.031006 1297.680664,1731.474854 
	C1297.564819,1726.265381 1294.049194,1723.888184 1289.659912,1722.515747 
	C1282.371338,1720.236572 1274.941162,1718.375366 1267.747437,1715.836792 
	C1259.980835,1713.096191 1254.271851,1707.908325 1252.048462,1699.683472 
	C1248.805908,1687.688354 1254.711426,1676.141846 1266.421021,1671.987671 
	C1276.325195,1668.474121 1286.447998,1668.647095 1296.285034,1672.199707 
	C1305.903809,1675.673462 1311.509644,1684.631226 1311.345337,1695.576172 
	C1306.094971,1695.576172 1300.821533,1695.576172 1295.489746,1695.576172 
	C1291.816895,1684.757446 1283.099854,1680.605103 1272.566406,1685.339478 
	C1270.230469,1686.389282 1267.354858,1689.427490 1267.328247,1691.582275 
	C1267.298218,1694.021851 1269.650391,1697.593994 1271.933838,1698.730835 
	C1276.780273,1701.143433 1282.247925,1702.315186 1287.472778,1703.957397 
	C1290.165649,1704.803589 1292.930542,1705.438843 1295.583618,1706.390259 
	C1313.873047,1712.948730 1319.639893,1730.098633 1308.940918,1746.880981 
z"/>
<path fill="#065730" opacity="1.000000" stroke="none" 
	d="
M778.705200,1721.243408 
	C783.156494,1732.902344 787.453430,1744.204346 791.940796,1756.007202 
	C786.545410,1756.007202 781.595093,1756.175171 776.671692,1755.885498 
	C775.483948,1755.815674 773.837036,1754.464478 773.343018,1753.302124 
	C771.463928,1748.880615 770.178589,1744.201294 768.209351,1739.826538 
	C767.598877,1738.470459 765.547119,1736.953613 764.112915,1736.910156 
	C755.295837,1736.643066 746.462219,1736.639526 737.645996,1736.919800 
	C736.257446,1736.963989 734.269104,1738.621460 733.690125,1740.006226 
	C731.520325,1745.196655 729.820251,1750.583252 727.948364,1755.884277 
	C722.222107,1755.884277 716.744690,1755.884277 710.627319,1755.884277 
	C713.497559,1748.171021 716.254211,1740.766602 719.008301,1733.361328 
	C726.239380,1713.917725 733.550476,1694.503174 740.614136,1674.998901 
	C741.700500,1671.999146 743.008789,1670.972168 746.213989,1670.997070 
	C759.393127,1671.099365 759.381104,1670.988159 764.079224,1683.250488 
	C768.888062,1695.801636 773.725830,1708.341553 778.705200,1721.243408 
M746.637085,1722.259033 
	C751.493469,1722.259033 756.349915,1722.259033 761.880798,1722.259033 
	C758.051697,1711.592896 754.550049,1701.838867 750.653137,1690.983765 
	C746.811401,1701.991089 743.365295,1711.864868 739.737549,1722.259033 
	C742.076782,1722.259033 743.881470,1722.259033 746.637085,1722.259033 
z"/>
<path fill="#075730" opacity="1.000000" stroke="none" 
	d="
M1086.239868,1756.008057 
	C1084.284912,1756.008057 1082.794800,1756.008057 1081.083496,1756.008057 
	C1079.090454,1750.633301 1076.964600,1745.409180 1075.250366,1740.053467 
	C1074.446655,1737.542725 1073.277466,1736.676758 1070.664917,1736.721436 
	C1062.011841,1736.869995 1053.351807,1736.899902 1044.700562,1736.704712 
	C1041.992798,1736.643555 1040.927979,1737.736572 1040.177612,1740.075806 
	C1038.505737,1745.288574 1036.632446,1750.436646 1034.779297,1755.790527 
	C1029.160278,1755.790527 1023.588623,1755.790527 1017.406006,1755.790527 
	C1020.585754,1747.237915 1023.643616,1739.036987 1026.684326,1730.829834 
	C1033.542725,1712.319580 1040.443726,1693.824707 1047.193604,1675.274902 
	C1048.293945,1672.250854 1049.619263,1670.909424 1053.180298,1670.966064 
	C1066.223755,1671.173706 1066.215210,1671.004028 1070.794067,1682.981689 
	C1079.382690,1705.448730 1087.988770,1727.909180 1096.577881,1750.376221 
	C1097.217285,1752.048950 1097.776733,1753.752197 1098.573608,1756.008057 
	C1094.244995,1756.008057 1090.474976,1756.008057 1086.239868,1756.008057 
M1064.290161,1722.255859 
	C1065.524414,1722.140625 1066.758667,1722.025269 1068.506592,1721.861938 
	C1064.821899,1711.640625 1061.302124,1701.876343 1057.386475,1691.014160 
	C1053.562500,1701.981689 1050.152222,1711.762817 1046.493530,1722.256348 
	C1052.518311,1722.256348 1057.928589,1722.256348 1064.290161,1722.255859 
z"/>
<path fill="#065730" opacity="1.000000" stroke="none" 
	d="
M886.233337,1671.080566 
	C898.026489,1671.080566 898.018250,1671.083740 902.113892,1681.727295 
	C910.990662,1704.796021 919.882507,1727.859009 928.746338,1750.932739 
	C929.327515,1752.445557 929.723450,1754.029541 930.338501,1756.007935 
	C925.101135,1756.007935 920.294434,1756.177490 915.515076,1755.890625 
	C914.297424,1755.817505 912.598206,1754.544067 912.097717,1753.395996 
	C910.244629,1749.145264 908.627014,1744.769409 907.267212,1740.334473 
	C906.460327,1737.702881 905.289917,1736.643921 902.393127,1736.703857 
	C892.912842,1736.899780 883.426086,1736.777344 873.421692,1736.777344 
	C871.179382,1743.051636 868.916687,1749.383057 866.607666,1755.843994 
	C861.092163,1755.843994 855.622620,1755.843994 849.657166,1755.843994 
	C850.134094,1754.180176 850.468384,1752.643066 851.009155,1751.182251 
	C860.397095,1725.823608 869.916077,1700.512451 879.101990,1675.081055 
	C880.454651,1671.336060 882.551392,1670.752930 886.233337,1671.080566 
M880.544922,1716.121582 
	C879.924744,1717.968872 879.304504,1719.816162 878.561523,1722.029297 
	C886.011353,1722.029297 892.919922,1722.029297 900.442749,1722.029297 
	C896.784485,1711.813965 893.255432,1701.959351 889.316284,1690.959961 
	C886.244690,1699.812500 883.545715,1707.590942 880.544922,1716.121582 
z"/>
<path fill="#04562E" opacity="1.000000" stroke="none" 
	d="
M1409.758667,1685.382080 
	C1408.917847,1680.779663 1408.508301,1676.266113 1408.066284,1671.394165 
	C1430.035522,1671.394165 1451.220825,1671.394165 1472.677734,1671.394165 
	C1472.677734,1675.905762 1472.677734,1680.333984 1472.677734,1685.244263 
	C1465.008057,1685.244263 1457.268311,1685.244263 1449.134277,1685.244263 
	C1449.134277,1708.948486 1449.134277,1732.179688 1449.134277,1755.706055 
	C1443.506226,1755.706055 1438.270996,1755.706055 1432.506348,1755.706055 
	C1432.506348,1732.497437 1432.506348,1709.284790 1432.506348,1685.470825 
	C1424.724854,1685.470825 1417.457397,1685.470825 1409.758667,1685.382080 
z"/>
<path fill="#03552D" opacity="1.000000" stroke="none" 
	d="
M829.106873,1704.000732 
	C829.106873,1721.458252 829.106873,1738.416016 829.106873,1755.687500 
	C823.703369,1755.687500 818.489990,1755.687500 812.779541,1755.687500 
	C812.779541,1732.393433 812.779541,1709.190308 812.779541,1685.581055 
	C804.696655,1685.581055 797.092346,1685.581055 789.134277,1685.581055 
	C789.134277,1680.646362 789.134277,1676.118164 789.134277,1671.336182 
	C810.266174,1671.336182 831.325806,1671.336182 852.724365,1671.336182 
	C852.724365,1675.905884 852.724365,1680.457764 852.724365,1685.407227 
	C845.070923,1685.407227 837.460693,1685.407227 829.106873,1685.407227 
	C829.106873,1691.684204 829.106873,1697.592651 829.106873,1704.000732 
z"/>
<path fill="#056A30" opacity="1.000000" stroke="none" 
	d="
M517.256714,1255.701172 
	C517.456482,1255.189087 517.934753,1254.620972 518.719482,1254.031128 
	C518.528992,1254.554688 518.032043,1255.099976 517.256714,1255.701172 
z"/>
<path fill="#03CE46" opacity="1.000000" stroke="none" 
	d="
M225.113235,1684.282959 
	C225.578659,1684.206787 226.189423,1684.419678 226.929535,1684.953125 
	C226.458786,1685.039795 225.858673,1684.805908 225.113235,1684.282959 
z"/>
<path fill="#D65C37" opacity="1.000000" stroke="none" 
	d="
M976.534363,426.779907 
	C974.083862,424.728607 971.528748,422.567963 969.632141,419.933258 
	C957.167847,402.617889 944.760681,385.259827 932.512085,367.791443 
	C926.248169,358.858032 920.351013,349.667480 914.136230,340.284424 
	C918.720032,323.597107 923.864258,307.323059 928.091797,290.814301 
	C933.807129,268.495636 935.175354,245.620773 933.825989,222.721741 
	C932.552185,201.105377 926.520203,180.393692 919.530151,159.981781 
	C918.839050,157.963745 918.487549,155.829422 918.011597,153.341431 
	C928.253113,174.530807 939.359863,195.756531 948.471741,217.806610 
	C964.578979,256.785156 976.059631,297.280396 981.472595,339.146942 
	C983.413391,354.158112 982.432617,369.667847 981.585205,384.883148 
	C980.810913,398.786133 978.415283,412.598816 976.534363,426.779907 
z"/>
<path fill="#D65C37" opacity="1.000000" stroke="none" 
	d="
M916.928223,151.259827 
	C917.281189,151.401321 917.686096,151.857391 918.085632,152.650620 
	C917.713562,152.516663 917.346924,152.045532 916.928223,151.259827 
z"/>
<path fill="#158009" opacity="1.000000" stroke="none" 
	d="
M881.764771,92.433411 
	C881.986389,92.294380 882.353882,92.421608 882.845886,92.821648 
	C882.617126,92.962860 882.263916,92.831261 881.764771,92.433411 
z"/>
<path fill="#158009" opacity="1.000000" stroke="none" 
	d="
M882.898376,93.367020 
	C883.200623,93.218765 883.518433,93.380226 883.898193,93.811584 
	C883.611450,93.946571 883.262695,93.811653 882.898376,93.367020 
z"/>
<path fill="#10BE39" opacity="1.000000" stroke="none" 
	d="
M1218.093140,977.162781 
	C1211.609009,970.562622 1205.260864,963.821472 1198.602417,957.402100 
	C1191.971069,951.008728 1184.975098,944.995605 1178.234497,938.713318 
	C1166.937866,928.184692 1155.789185,917.496521 1144.442627,907.022461 
	C1134.381958,897.735352 1124.038330,888.754761 1113.994019,879.450378 
	C1093.816772,860.759583 1073.793091,841.902893 1053.637939,823.188110 
	C1041.862061,812.253906 1029.990967,801.421448 1018.096558,790.615906 
	C1004.596802,778.351990 991.000488,766.194275 977.510376,753.919800 
	C975.826904,752.388000 974.535461,750.425293 973.022705,748.313477 
	C992.545715,731.280151 1012.264526,714.774597 1031.629639,697.863831 
	C1053.778564,678.522156 1072.878418,656.339966 1089.132812,631.917236 
	C1097.487549,619.363953 1104.036987,605.609253 1111.979004,592.331848 
	C1116.579956,595.709412 1120.754517,598.993530 1124.600464,602.625610 
	C1136.272583,613.648376 1147.784790,624.840149 1159.428101,635.893738 
	C1164.052612,640.283997 1168.878784,644.460999 1173.574341,648.777283 
	C1178.518433,653.321960 1183.416260,657.917114 1188.295776,662.494141 
	C1188.257324,662.498108 1188.330933,662.511475 1188.250977,662.885376 
	C1188.734009,664.179688 1189.297119,665.100098 1189.883301,666.437378 
	C1189.375854,671.461182 1188.650146,676.055725 1188.355957,680.677673 
	C1187.786377,689.625366 1187.081299,698.590881 1187.139038,707.544495 
	C1187.197388,716.548889 1192.931152,723.323120 1197.849609,730.166382 
	C1227.346436,771.206665 1241.136353,816.705688 1238.197998,867.369263 
	C1236.760864,892.150391 1232.887817,916.497253 1227.576050,940.648071 
	C1224.876587,952.921143 1221.282715,964.997498 1218.093140,977.162781 
z"/>
<path fill="#14D73D" opacity="1.000000" stroke="none" 
	d="
M1189.860107,666.020569 
	C1189.297119,665.100098 1188.734009,664.179688 1188.280273,662.907227 
	C1188.389526,662.555237 1188.334229,662.490173 1188.334229,662.490173 
	C1183.416260,657.917114 1178.518433,653.321960 1173.574341,648.777283 
	C1168.878784,644.460999 1164.052612,640.283997 1159.428101,635.893738 
	C1147.784790,624.840149 1136.272583,613.648376 1124.600464,602.625610 
	C1120.754517,598.993530 1116.579956,595.709412 1112.248779,592.122559 
	C1117.058228,575.519897 1123.140381,559.287170 1127.060547,542.548035 
	C1132.697510,518.478516 1132.935181,493.972961 1130.240479,469.307281 
	C1125.526855,426.159454 1111.476318,385.864014 1094.191895,346.483185 
	C1089.780762,336.432953 1084.789307,326.637329 1080.025024,316.365295 
	C1081.583740,317.097504 1083.375488,317.988251 1084.750000,319.312073 
	C1096.691528,330.812714 1108.421387,342.536469 1120.495239,353.895111 
	C1128.568604,361.490479 1137.152954,368.540253 1145.406860,375.947540 
	C1150.808594,380.795258 1155.956299,385.926819 1161.383057,390.745148 
	C1162.660034,391.879089 1164.603394,392.262604 1166.778076,393.337524 
	C1167.707275,395.108795 1168.066162,396.543732 1168.494873,397.957581 
	C1176.963135,425.890839 1184.355103,454.105774 1187.002197,483.248322 
	C1189.460693,510.314514 1191.536133,537.439026 1192.786133,564.583618 
	C1193.696411,584.352112 1192.989502,604.195129 1192.970215,624.430298 
	C1191.911255,638.577332 1190.885620,652.298950 1189.860107,666.020569 
z"/>
<path fill="#6EFA4C" opacity="1.000000" stroke="none" 
	d="
M1189.883301,666.437378 
	C1190.885620,652.298950 1191.911255,638.577332 1193.327148,624.468933 
	C1195.291382,626.682678 1197.055542,629.188049 1198.411743,631.897583 
	C1235.987671,706.968567 1273.513184,782.064758 1311.116455,857.122009 
	C1312.038696,858.962830 1313.748535,860.408997 1315.090820,862.039307 
	C1310.623535,873.555969 1306.218018,885.097229 1301.656738,896.576599 
	C1299.952759,900.864807 1297.885498,905.008667 1295.912598,909.579285 
	C1288.910889,922.963684 1282.670288,936.416077 1274.899536,948.917297 
	C1260.700195,971.760986 1245.588745,994.037476 1230.885132,1016.568420 
	C1229.996826,1017.929749 1229.348022,1019.447449 1228.469727,1021.219055 
	C1225.213989,1025.077026 1222.040161,1028.576782 1218.945557,1032.145264 
	C1208.571167,1044.108154 1198.225220,1056.095459 1187.459106,1068.060181 
	C1187.049927,1068.046875 1186.905640,1067.926147 1186.905762,1067.926147 
	C1193.447510,1050.588379 1200.293823,1033.357544 1206.428101,1015.876709 
	C1210.804565,1003.405579 1214.223999,990.598572 1218.081787,977.552124 
	C1221.282715,964.997498 1224.876587,952.921143 1227.576050,940.648071 
	C1232.887817,916.497253 1236.760864,892.150391 1238.197998,867.369263 
	C1241.136353,816.705688 1227.346436,771.206665 1197.849609,730.166382 
	C1192.931152,723.323120 1187.197388,716.548889 1187.139038,707.544495 
	C1187.081299,698.590881 1187.786377,689.625366 1188.355957,680.677673 
	C1188.650146,676.055725 1189.375854,671.461182 1189.883301,666.437378 
z"/>
<path fill="#6EFA4C" opacity="1.000000" stroke="none" 
	d="
M1187.121338,1068.108154 
	C1186.988770,1068.600464 1186.784912,1069.031250 1186.580933,1069.462158 
	C1186.549072,1069.047119 1186.517090,1068.632080 1186.695312,1068.071533 
	C1186.905640,1067.926147 1187.049927,1068.046875 1187.121338,1068.108154 
z"/>
<path fill="#74F04C" opacity="1.000000" stroke="none" 
	d="
M1315.345703,861.789185 
	C1313.748535,860.408997 1312.038696,858.962830 1311.116455,857.122009 
	C1273.513184,782.064758 1235.987671,706.968567 1198.411743,631.897583 
	C1197.055542,629.188049 1195.291382,626.682678 1193.360596,624.043518 
	C1192.989502,604.195129 1193.696411,584.352112 1192.786133,564.583618 
	C1191.536133,537.439026 1189.460693,510.314514 1187.002197,483.248322 
	C1184.355103,454.105774 1176.963135,425.890839 1168.494873,397.957581 
	C1168.066162,396.543732 1167.707275,395.108795 1167.147217,393.343079 
	C1158.189819,369.100342 1150.220215,344.855499 1140.400513,321.384613 
	C1128.664551,293.333374 1114.178223,266.561249 1098.031982,240.357971 
	C1098.018799,239.981247 1098.086304,239.920624 1098.086304,239.920609 
	C1100.236206,241.659866 1102.607910,243.188065 1104.498779,245.174026 
	C1113.904541,255.052811 1122.984619,265.247742 1132.543335,274.973694 
	C1167.032349,310.066254 1198.437988,347.701385 1224.617554,389.380066 
	C1239.552856,413.157623 1252.792114,438.000519 1266.970459,462.672485 
	C1281.518311,491.653717 1293.757202,521.232117 1304.854980,551.685669 
	C1311.147339,573.288452 1318.261108,594.351440 1323.109375,615.923584 
	C1328.504028,639.926758 1332.012451,664.364502 1336.010132,688.667603 
	C1339.253052,708.383911 1339.388184,728.310913 1338.929077,748.233643 
	C1338.830078,752.530945 1338.338745,756.819153 1338.066895,761.560425 
	C1334.799561,796.134521 1327.260010,829.302551 1315.345703,861.789185 
z"/>
<path fill="#74F04C" opacity="1.000000" stroke="none" 
	d="
M1097.983765,240.010132 
	C1097.830933,239.555054 1097.713135,239.071106 1097.595337,238.587158 
	C1097.754517,238.864410 1097.913696,239.141663 1098.079590,239.669769 
	C1098.086304,239.920624 1098.018799,239.981247 1097.983765,240.010132 
z"/>
<path fill="#FEFEFE" opacity="1.000000" stroke="none" 
	d="
M1266.782227,1447.376953 
	C1270.529297,1472.904785 1270.605713,1497.919922 1263.960815,1522.577515 
	C1258.959229,1541.137207 1249.639648,1556.708862 1230.852661,1564.293701 
	C1225.228271,1566.564453 1219.045166,1568.433472 1213.056274,1568.632690 
	C1195.787109,1569.206787 1178.486694,1568.835449 1160.881592,1568.835449 
	C1160.881592,1511.240112 1160.881592,1453.732422 1160.881592,1396.133179 
	C1161.332031,1395.935913 1161.765503,1395.578613 1162.196899,1395.581177 
	C1180.840942,1395.692871 1199.534180,1395.041138 1218.115356,1396.193481 
	C1237.807251,1397.414673 1252.085327,1407.976318 1260.040649,1426.137329 
	C1262.948242,1432.774902 1264.514404,1440.000000 1266.782227,1447.376953 
z"/>
<path fill="#FFFFFE" opacity="1.000000" stroke="none" 
	d="
M773.052368,1531.975952 
	C762.806152,1557.297729 744.019165,1569.142334 717.347595,1569.087769 
	C702.711548,1569.057861 688.075439,1569.082397 673.127075,1569.082397 
	C673.127075,1511.155029 673.127075,1453.580078 673.127075,1395.411133 
	C675.646118,1395.411133 678.102356,1395.396973 680.558350,1395.413452 
	C695.888367,1395.516968 711.233398,1395.236572 726.544983,1395.824707 
	C750.964661,1396.762573 767.059326,1409.550903 774.785278,1432.411255 
	C777.635254,1440.843994 779.597351,1449.807739 780.368835,1458.668091 
	C782.518311,1483.357178 782.126099,1507.946411 773.052368,1531.975952 
z"/>
<path fill="#FAFCFB" opacity="1.000000" stroke="none" 
	d="
M977.693604,1741.680298 
	C970.962891,1741.695679 964.698242,1741.695679 958.215454,1741.695679 
	C958.215454,1734.019287 958.215454,1726.781006 958.215454,1719.488647 
	C966.469543,1719.488647 974.724670,1719.017090 982.897217,1719.636230 
	C989.568359,1720.141602 993.042419,1724.880981 992.742126,1731.121826 
	C992.449280,1737.208252 988.979309,1740.562500 982.129761,1741.346313 
	C980.811523,1741.497070 979.483337,1741.560913 977.693604,1741.680298 
z"/>
<path fill="#F8FBF9" opacity="1.000000" stroke="none" 
	d="
M973.883301,1685.204590 
	C976.524475,1685.310181 978.704468,1685.262085 980.842896,1685.536865 
	C986.584717,1686.274536 989.462402,1689.281738 989.652954,1694.520630 
	C989.845886,1699.824951 986.870667,1703.833984 981.075134,1704.263550 
	C973.650879,1704.813965 966.155029,1704.397217 958.337585,1704.397217 
	C958.337585,1698.411987 958.337585,1692.165771 958.337585,1685.198242 
	C963.229065,1685.198242 968.316101,1685.198242 973.883301,1685.204590 
z"/>
<path fill="#FCFDFD" opacity="1.000000" stroke="none" 
	d="
M1500.768555,1701.024048 
	C1504.550781,1689.485107 1512.576050,1683.546143 1522.953491,1684.290771 
	C1533.753540,1685.065552 1540.954346,1691.959473 1543.134155,1703.611328 
	C1545.531372,1716.424927 1543.618652,1727.830322 1537.841064,1735.015381 
	C1532.869263,1732.230469 1527.878174,1729.434814 1522.607178,1726.482422 
	C1520.886475,1730.163330 1519.431030,1733.276733 1517.930542,1736.486328 
	C1521.082764,1738.216553 1524.036865,1739.838135 1527.466553,1741.720703 
	C1516.712036,1745.674561 1506.146362,1740.632690 1501.942383,1729.841797 
	C1498.334717,1720.581909 1498.352661,1711.016357 1500.768555,1701.024048 
z"/>
<path fill="#FBFCFB" opacity="1.000000" stroke="none" 
	d="
M1161.183350,1718.450928 
	C1166.179688,1724.913574 1170.936035,1731.081421 1175.674438,1737.226196 
	C1170.158447,1743.490967 1162.197876,1745.812256 1156.113770,1743.013916 
	C1151.265503,1740.783936 1148.923828,1735.718872 1149.936035,1729.651855 
	C1150.894043,1723.909912 1155.944214,1718.635620 1161.183350,1718.450928 
z"/>
<path fill="#F8FAF9" opacity="1.000000" stroke="none" 
	d="
M1161.876709,1694.014404 
	C1159.815674,1690.919678 1157.403809,1687.815674 1160.039795,1684.729126 
	C1161.639160,1682.856201 1164.801514,1681.176025 1167.108521,1681.357422 
	C1169.619141,1681.554688 1173.063354,1683.493530 1174.047852,1685.622314 
	C1175.014160,1687.711426 1174.027588,1691.340820 1172.743652,1693.653687 
	C1171.467163,1695.953369 1168.754517,1697.455811 1166.416260,1699.534912 
	C1164.813721,1697.604980 1163.449219,1695.961792 1161.876709,1694.014404 
z"/>
<path fill="#FDFDFD" opacity="1.000000" stroke="none" 
	d="
M1346.759277,1692.012695 
	C1346.759521,1689.717041 1346.759521,1687.920410 1346.759521,1685.216064 
	C1354.057739,1685.626221 1361.005737,1685.528198 1367.788208,1686.539917 
	C1374.127563,1687.485718 1377.917358,1692.177490 1379.410889,1698.209961 
	C1382.086182,1709.016968 1382.091675,1719.908325 1379.038208,1730.681396 
	C1377.201050,1737.162720 1372.734131,1740.807007 1366.059082,1741.140991 
	C1359.811768,1741.453613 1353.536499,1741.208008 1346.759155,1741.208008 
	C1346.759155,1724.993042 1346.759155,1708.752441 1346.759277,1692.012695 
z"/>
<path fill="#F9FBFA" opacity="1.000000" stroke="none" 
	d="
M746.161621,1722.259033 
	C743.881470,1722.259033 742.076782,1722.259033 739.737549,1722.259033 
	C743.365295,1711.864868 746.811401,1701.991089 750.653137,1690.983765 
	C754.550049,1701.838867 758.051697,1711.592896 761.880798,1722.259033 
	C756.349915,1722.259033 751.493469,1722.259033 746.161621,1722.259033 
z"/>
<path fill="#FAFCFB" opacity="1.000000" stroke="none" 
	d="
M1063.814453,1722.256104 
	C1057.928589,1722.256348 1052.518311,1722.256348 1046.493530,1722.256348 
	C1050.152222,1711.762817 1053.562500,1701.981689 1057.386475,1691.014160 
	C1061.302124,1701.876343 1064.821899,1711.640625 1068.506592,1721.861938 
	C1066.758667,1722.025269 1065.524414,1722.140625 1063.814453,1722.256104 
z"/>
<path fill="#FAFBFB" opacity="1.000000" stroke="none" 
	d="
M880.695801,1715.745605 
	C883.545715,1707.590942 886.244690,1699.812500 889.316284,1690.959961 
	C893.255432,1701.959351 896.784485,1711.813965 900.442749,1722.029297 
	C892.919922,1722.029297 886.011353,1722.029297 878.561523,1722.029297 
	C879.304504,1719.816162 879.924744,1717.968872 880.695801,1715.745605 
z"/>
<path fill="#6EFA4C" opacity="1.000000" stroke="none" 
	d="
M1188.295776,662.494141 
	C1188.334229,662.490173 1188.389526,662.555237 1188.360229,662.533325 
	C1188.330933,662.511475 1188.257324,662.498108 1188.295776,662.494141 
z"/>
</svg>